<svg width="422" height="128" viewBox="0 0 422 128" fill="none" xmlns="http://www.w3.org/2000/svg">
<g clip-path="url(#clip0_448_6386)">
<path d="M421.09 33.42C421.09 51.88 406.13 66.84 387.67 66.84C369.21 66.84 354.25 51.88 354.25 33.42C354.25 14.96 369.21 0 387.67 0C406.13 0 421.09 14.96 421.09 33.42Z" fill="#173AFF"/>
<path d="M58.2802 53.4727H47.4102V111.993H58.2802V53.4727Z" fill="white"/>
<path d="M96.4014 95.1301C90.7314 102.69 86.8714 104.42 84.5114 104.42C81.9114 104.42 81.0414 102.53 81.0414 97.5702V71.6602H69.9414V101.35C69.9414 108.91 73.8014 112.69 81.5214 112.69C86.1714 112.69 91.6014 111.19 96.4014 104.42V111.98H107.431V71.6602H96.4014V95.1301Z" fill="white"/>
<path d="M21.58 70.5627C17.56 70.5627 14.1 71.2727 10.87 72.6927V53.4727H0V110.883C4.49 112.303 9.53 113.163 14.65 113.163C30.09 113.163 39.77 104.263 39.77 89.9327C39.77 78.1227 32.68 70.5627 21.58 70.5627ZM16.07 105.453C14.42 105.453 13.31 105.213 10.87 104.353V80.3327C13.55 79.0727 15.36 78.5227 17.56 78.5227C24.1 78.5227 28.19 83.2527 28.19 90.4927C28.19 99.0027 22.83 105.453 16.06 105.453H16.07Z" fill="white"/>
<path d="M229.26 70.5625C216.19 70.5625 207.68 79.8525 207.68 91.8225C207.68 103.793 216.03 113.083 229.1 113.083C242.17 113.083 250.6 103.793 250.6 91.8225C250.6 79.8525 242.25 70.5625 229.26 70.5625ZM229.34 104.903C223.04 104.903 219.1 99.1525 219.1 91.8325C219.1 84.5125 222.88 78.7625 229.1 78.7625C235.32 78.7625 239.18 84.5125 239.18 91.8325C239.18 99.1525 235.48 104.903 229.34 104.903Z" fill="white"/>
<path d="M307.94 70.9609C303.29 70.9609 297.86 72.4609 293.05 79.2309V71.6709H282.02V111.991H293.05V88.5209C298.72 80.9609 302.58 79.2309 304.94 79.2309C307.54 79.2309 308.4 81.1209 308.4 86.0809V111.991H319.51V82.3009C319.51 74.7409 315.65 70.9609 307.93 70.9609H307.94Z" fill="white"/>
<path d="M350.711 100.573C347.801 102.463 346.141 103.013 344.961 103.013C343.151 103.013 342.751 101.753 342.751 97.2633V79.3033H352.041V71.6633H342.751V59.6133H332.351V71.6633L325.891 72.6833V79.3033H332.351V104.353C332.351 110.343 334.951 113.093 340.701 113.093C345.661 113.093 350.071 110.653 354.251 108.053L350.711 100.573Z" fill="white"/>
<path d="M138.062 104.742C134.322 104.742 131.572 103.312 129.682 101.122C147.002 95.4922 154.992 89.7422 154.992 82.8522C154.992 74.9722 148.772 70.4922 138.612 70.4922C128.452 70.4922 116.012 77.4222 116.012 92.9422C116.012 105.232 124.042 113.102 136.722 113.102C143.102 113.102 149.402 111.372 155.312 108.062L151.292 100.182C147.352 102.622 143.102 104.752 138.062 104.752V104.742ZM136.882 78.1222C141.372 78.0422 144.282 80.0122 144.282 82.4522C144.282 86.9522 139.212 90.3122 126.762 94.9722C126.462 93.6122 126.322 92.2022 126.322 90.8022C126.322 81.4322 131.912 78.2022 136.872 78.1222H136.882Z" fill="white"/>
<path d="M179.091 70.6406C173.421 70.6406 167.511 71.8206 162.551 74.0306V127.431H173.421V111.841C175.391 112.711 177.511 113.101 179.961 113.101C192.881 113.101 202.331 103.261 202.331 89.9506C202.331 76.6406 191.151 70.6506 179.101 70.6506L179.091 70.6406ZM179.251 105.531C176.651 105.531 174.681 104.981 173.421 103.951V80.3206C176.101 79.0606 177.911 78.5106 180.111 78.5106C186.651 78.5106 190.741 83.2406 190.741 90.4806C190.741 98.5906 185.381 105.521 179.241 105.521L179.251 105.531Z" fill="white"/>
<path d="M269.749 71.6602H258.719V111.98H269.749V71.6602Z" fill="white"/>
<path d="M264.148 49.8516C260.058 49.8516 256.828 53.0816 256.828 57.2516C256.828 61.4216 260.058 64.5816 264.148 64.5816C268.238 64.5816 271.548 61.3516 271.548 57.2516C271.548 53.1516 268.318 49.8516 264.148 49.8516Z" fill="white"/>
</g>
<defs>
<clipPath id="clip0_448_6386">
<rect width="421.09" height="127.42" fill="white"/>
</clipPath>
</defs>
</svg>
