<svg width="416" height="50" viewBox="0 0 416 50" fill="none" xmlns="http://www.w3.org/2000/svg">
<g clip-path="url(#clip0_448_6403)">
<path d="M86.4922 21.904H94.879V25.5722C95.7978 24.2252 97.0324 23.1233 98.475 22.3625C99.9176 21.6016 101.525 21.205 103.156 21.207C111.946 21.207 112.662 27.608 112.662 31.4046V48.315H104.11V35.568C104.11 31.8998 104.514 28.2316 99.7973 28.2316C96.549 28.2316 95.1176 30.9644 95.1176 33.8623V48.2233H86.4922V21.904Z" fill="white"/>
<path d="M124.114 39.6565C124.095 40.2279 124.215 40.7953 124.465 41.3098C124.714 41.8242 125.085 42.2703 125.546 42.6094C126.489 43.2379 127.606 43.5524 128.739 43.5081C130.409 43.5081 132.795 42.8112 132.795 40.7203C132.795 38.6294 130.115 38.281 128.592 37.9325C123.087 36.5569 116.351 36.4102 116.351 29.3122C116.351 22.9662 123.197 21.2422 128.39 21.2422C134.171 21.2422 140.209 22.9112 140.521 29.7707H132.538C132.575 29.3253 132.492 28.8779 132.299 28.4749C132.105 28.0719 131.808 27.7278 131.437 27.4781C130.599 27.0048 129.645 26.776 128.684 26.8178C127.271 26.8178 125.013 26.9646 125.013 28.7987C125.013 31.2747 130.813 31.7332 134.777 32.5952C140.099 33.6774 141.475 37.529 141.475 39.7115C141.475 46.7728 134.777 49.1021 128.831 49.1021C122.573 49.1021 116.186 47.0113 115.984 39.6565H124.114Z" fill="white"/>
<path d="M157.166 21.0961C159.013 21.0399 160.853 21.3628 162.571 22.0449C164.288 22.7269 165.848 23.7536 167.153 25.0616C168.459 26.3695 169.482 27.931 170.16 29.6495C170.838 31.3681 171.156 33.2073 171.095 35.0536C171.095 38.7359 169.631 42.2673 167.026 44.8711C164.421 47.4749 160.887 48.9377 157.202 48.9377C153.518 48.9377 149.984 47.4749 147.379 44.8711C144.774 42.2673 143.31 38.7359 143.31 35.0536C143.241 33.2116 143.552 31.3751 144.223 29.658C144.893 27.9408 145.91 26.3796 147.209 25.0711C148.508 23.7625 150.062 22.7345 151.774 22.0508C153.487 21.367 155.322 21.0421 157.166 21.0961V21.0961ZM157.166 42.3533C161.185 42.3533 162.451 38.3916 162.451 35.0169C162.451 31.6421 161.185 27.6805 157.166 27.6805C153.147 27.6805 151.935 31.6972 151.935 35.0169C151.935 38.3366 153.165 42.3533 157.166 42.3533Z" fill="white"/>
<path d="M173.812 12H182.456V48.2418H173.812V12Z" fill="white"/>
<path d="M21.25 12H31.1967V25.4073H42.6116V12H52.3931V48.2418H42.5382V33.9542H31.1967V48.2418H21.25V12Z" fill="white"/>
<path d="M11.268 12H0V24.8754H11.268V12Z" fill="#106FB5"/>
<path d="M11.268 34.9062H0V48.2401H11.268V34.9062Z" fill="#139244"/>
<path d="M56.6894 30.0658C56.6897 28.6309 57.0702 27.2216 57.7922 25.9813C58.5143 24.741 59.5521 23.7139 60.8002 23.0045C63.3981 21.7011 66.2819 21.0704 69.187 21.1704C75.4267 21.1704 81.4644 22.546 81.4644 30.0108V41.5289C81.3227 43.8224 81.7056 46.1181 82.5839 48.2417H73.8117C73.5388 47.4407 73.3662 46.6091 73.2978 45.7657C72.1409 46.8582 70.7768 47.7083 69.286 48.2659C67.7952 48.8234 66.2078 49.0771 64.6174 49.012C59.589 49.012 55.625 46.4626 55.625 41.0337C55.625 32.4685 64.9661 33.1288 70.9672 31.8632C72.4353 31.5698 73.2428 31.0562 73.2428 29.4239C73.2428 27.4431 70.857 26.6911 69.0769 26.6911C68.5716 26.627 68.0586 26.6638 67.5676 26.7991C67.0766 26.9344 66.6173 27.1657 66.2163 27.4795C65.8152 27.7933 65.4804 28.1834 65.2312 28.6274C64.982 29.0713 64.8232 29.5602 64.7642 30.0658H56.6894ZM67.9024 43.6748C72.0132 43.6748 73.408 41.3455 73.1694 35.9166C71.4758 36.6099 69.7088 37.1083 67.9024 37.4022C65.9755 37.8607 64.3421 38.6677 64.3421 40.7586C64.3421 42.8495 65.9387 43.6748 67.9024 43.6748Z" fill="white"/>
<path d="M234.354 15L202.844 46.4731" stroke="white" stroke-width="0.9" stroke-miterlimit="10"/>
<path d="M202.844 15L234.354 46.4731" stroke="white" stroke-width="0.9" stroke-miterlimit="10"/>
<path d="M416.001 13.8518C416.001 20.9507 410.281 26.7037 403.223 26.7037C396.165 26.7037 390.445 20.9507 390.445 13.8518C390.445 6.75294 396.165 1 403.223 1C410.281 1 416.001 6.75294 416.001 13.8518V13.8518Z" fill="#173AFF"/>
<path d="M277.281 21.5625H273.125V44.0667H277.281V21.5625Z" fill="white"/>
<path d="M291.859 37.5841C289.691 40.4913 288.215 41.1566 287.313 41.1566C286.319 41.1566 285.986 40.4298 285.986 38.5224V28.5586H281.742V39.976C281.742 42.8833 283.218 44.3369 286.17 44.3369C287.948 44.3369 290.024 43.7601 291.859 41.1566V44.0639H296.076V28.5586H291.859V37.5841Z" fill="white"/>
<path d="M263.251 28.1345C261.714 28.1345 260.391 28.4076 259.156 28.9536V21.5625H255V43.6398C256.717 44.1859 258.644 44.5166 260.601 44.5166C266.505 44.5166 270.206 41.094 270.206 35.5834C270.206 31.0418 267.495 28.1345 263.251 28.1345V28.1345ZM261.144 41.5517C260.513 41.5517 260.089 41.4594 259.156 41.1287V31.8916C260.181 31.4071 260.873 31.1956 261.714 31.1956C264.214 31.1956 265.778 33.0145 265.778 35.7987C265.778 39.0713 263.729 41.5517 261.14 41.5517H261.144Z" fill="white"/>
<path d="M342.657 28.1367C337.66 28.1367 334.406 31.7092 334.406 36.3124C334.406 40.9155 337.599 44.488 342.596 44.488C347.593 44.488 350.816 40.9155 350.816 36.3124C350.816 31.7092 347.624 28.1367 342.657 28.1367V28.1367ZM342.688 41.3423C340.279 41.3423 338.773 39.1311 338.773 36.3162C338.773 33.5013 340.218 31.2901 342.596 31.2901C344.974 31.2901 346.45 33.5013 346.45 36.3162C346.45 39.1311 345.035 41.3423 342.688 41.3423Z" fill="white"/>
<path d="M372.738 28.2891C370.961 28.2891 368.884 28.8659 367.045 31.4693V28.5621H362.828V44.0674H367.045V35.0418C369.213 32.1346 370.689 31.4693 371.591 31.4693C372.585 31.4693 372.914 32.1961 372.914 34.1035V44.0674H377.162V32.6499C377.162 29.7427 375.686 28.2891 372.735 28.2891H372.738Z" fill="white"/>
<path d="M389.091 39.6772C387.979 40.404 387.344 40.6155 386.893 40.6155C386.201 40.6155 386.048 40.1309 386.048 38.4043V31.4977H389.6V28.5597H386.048V23.9258H382.071V28.5597L379.602 28.9519V31.4977H382.071V41.1308C382.071 43.4343 383.066 44.4918 385.264 44.4918C387.16 44.4918 388.847 43.5535 390.445 42.5536L389.091 39.6772V39.6772Z" fill="white"/>
<path d="M307.786 41.2804C306.356 41.2804 305.305 40.7305 304.582 39.8883C311.204 37.7233 314.259 35.5121 314.259 32.8625C314.259 29.8322 311.881 28.1094 307.996 28.1094C304.112 28.1094 299.355 30.7743 299.355 36.7426C299.355 41.4688 302.426 44.4953 307.274 44.4953C309.713 44.4953 312.122 43.83 314.381 42.5571L312.844 39.5268C311.338 40.4651 309.713 41.2842 307.786 41.2842V41.2804ZM307.335 31.0435C309.052 31.0128 310.164 31.7703 310.164 32.7087C310.164 34.4392 308.226 35.7313 303.466 37.5233C303.351 37.0003 303.297 36.4581 303.297 35.9197C303.297 32.3164 305.435 31.0743 307.331 31.0435H307.335Z" fill="white"/>
<path d="M323.472 28.168C321.304 28.168 319.045 28.6217 317.148 29.4716V50.0068H321.304V44.0116C322.058 44.3462 322.868 44.4962 323.805 44.4962C328.745 44.4962 332.358 40.7122 332.358 35.5937C332.358 30.4753 328.083 28.1718 323.476 28.1718L323.472 28.168ZM323.534 41.5851C322.539 41.5851 321.786 41.3736 321.304 40.9775V31.8905C322.329 31.4059 323.021 31.1944 323.862 31.1944C326.363 31.1944 327.927 33.0134 327.927 35.7975C327.927 38.9163 325.877 41.5812 323.53 41.5812L323.534 41.5851Z" fill="white"/>
<path d="M358.135 28.5586H353.918V44.0639H358.135V28.5586Z" fill="white"/>
<path d="M355.994 20.1719C354.43 20.1719 353.195 21.414 353.195 23.0176C353.195 24.6212 354.43 25.8364 355.994 25.8364C357.558 25.8364 358.823 24.5943 358.823 23.0176C358.823 21.4409 357.588 20.1719 355.994 20.1719Z" fill="white"/>
</g>
<defs>
<clipPath id="clip0_448_6403">
<rect width="416" height="50" fill="white"/>
</clipPath>
</defs>
</svg>
