<svg width="413" height="61" viewBox="0 0 413 61" fill="none" xmlns="http://www.w3.org/2000/svg">
<path d="M72.8989 30.7632H79.9659V33.7755H80.0465C81.3788 31.5251 84.3754 30.126 87.0306 30.126C94.4319 30.126 95.0388 35.4733 95.0388 38.6596V52.7991H87.7584V42.1421C87.7584 39.1252 88.1045 36.0706 84.1217 36.0706C81.3812 36.0706 80.1793 38.3609 80.1793 40.7853V52.7991H72.9036V30.7632H72.8989Z" fill="white"/>
<path d="M104.614 45.6178C104.614 46.723 105.086 47.5295 105.811 48.0845C106.496 48.5924 107.485 48.8487 108.507 48.8487C109.922 48.8487 111.935 48.2515 111.935 46.509C111.935 44.7665 109.668 44.4749 108.381 44.174C103.803 43.0264 98.0638 42.9041 98.0638 36.9572C98.0638 31.6499 103.841 30.2061 108.21 30.2061C113.087 30.2061 118.186 31.6052 118.442 37.3381H111.721C111.721 36.407 111.38 35.8097 110.78 35.4287C110.178 35.0478 109.367 34.8785 108.466 34.8785C107.269 34.8785 105.339 35.0031 105.339 36.5339C105.339 38.615 110.221 38.9983 113.559 39.7202C118.053 40.6138 119.213 43.84 119.213 45.6648C119.213 51.5671 113.559 53.5212 108.554 53.5212C103.286 53.5212 97.8931 51.7811 97.6774 45.6225H104.614V45.6178Z" fill="white"/>
<path d="M132.477 47.8727C135.857 47.8727 136.929 44.5641 136.929 41.7611C136.929 38.9581 135.857 35.6073 132.477 35.6073C129.096 35.6073 128.067 38.9605 128.067 41.7611C128.067 44.5618 129.091 47.8727 132.477 47.8727ZM132.477 30.0859C139.368 30.0859 144.205 35.1393 144.205 41.7611C144.205 48.3829 139.366 53.3963 132.477 53.3963C125.588 53.3963 120.792 48.3853 120.792 41.7611C120.792 35.137 125.585 30.0859 132.477 30.0859" fill="white"/>
<path d="M153.782 22.4814H146.502V52.797H153.782V22.4814Z" fill="white"/>
<path d="M17.9106 22.4814H26.227V33.7004H35.8473V22.4814H44.1068V52.7993H35.8473V40.8419H26.227V52.7993H17.9106V22.4814Z" fill="white"/>
<path d="M9.50174 22.4814H0V33.2466H9.50174V22.4814Z" fill="#106FB5"/>
<path d="M9.50174 41.6484H0V52.7969H9.50174V41.6484Z" fill="#139244"/>
<path d="M57.2001 48.9781C60.6684 48.9781 61.8229 47.0264 61.6522 42.4833C60.6257 43.1205 58.7434 43.2499 57.1574 43.6731C55.5311 44.0541 54.1632 44.7313 54.1632 46.4738C54.1632 48.2162 55.5762 48.9781 57.2001 48.9781ZM47.7837 37.5592C47.9141 34.6669 49.2843 32.8045 51.252 31.6546C53.2197 30.5518 55.7895 30.1309 58.3119 30.1309C63.5749 30.1309 68.6719 31.2737 68.6719 37.5122V47.1534C68.6719 49.0228 68.6719 51.0592 69.5301 52.7969H62.2094C61.951 52.1174 61.8632 51.4401 61.7779 50.7159C59.8979 52.67 57.1147 53.4319 54.4619 53.4319C50.2255 53.4319 46.8852 51.3108 46.8852 46.7677C46.8852 39.5933 54.763 40.1459 59.8102 39.1253C61.0548 38.8714 61.7376 38.4458 61.7376 37.0889C61.7376 35.4311 59.7249 34.7962 58.229 34.7962C56.2186 34.7962 54.9313 35.6851 54.5923 37.5569H47.7861L47.7837 37.5592Z" fill="white"/>
<path d="M412.039 16.0023C412.039 24.8405 404.875 32.0046 396.036 32.0046C387.198 32.0046 380.034 24.8405 380.034 16.0023C380.034 7.16402 387.198 0 396.036 0C404.875 0 412.039 7.16402 412.039 16.0023Z" fill="#173AFF"/>
<path d="M238.343 25.5977H233.138V53.6107H238.343V25.5977Z" fill="white"/>
<path d="M256.589 45.5441C253.878 49.1656 252.028 49.9906 250.893 49.9906C249.65 49.9906 249.231 49.0867 249.231 46.7088V34.3037H243.917V48.5165C243.917 52.1379 245.767 53.9456 249.462 53.9456C251.688 53.9456 254.29 53.2298 256.589 49.9845V53.6059H261.867V34.3037H256.589V45.5381V45.5441Z" fill="white"/>
<path d="M220.77 33.7808C218.847 33.7808 217.191 34.1205 215.644 34.7999V25.5977H210.439V53.083C212.586 53.7624 215.001 54.1749 217.451 54.1749C224.84 54.1749 229.48 49.9165 229.48 43.0497C229.48 37.3962 226.09 33.7747 220.77 33.7747V33.7808ZM218.131 50.4867C217.336 50.4867 216.808 50.3715 215.644 49.959V38.4577C216.924 37.8572 217.791 37.5903 218.847 37.5903C221.977 37.5903 223.936 39.8529 223.936 43.3227C223.936 47.393 221.37 50.4867 218.131 50.4867V50.4867Z" fill="white"/>
<path d="M320.198 33.7812C313.938 33.7812 309.868 38.2277 309.868 43.9601C309.868 49.6925 313.865 54.139 320.126 54.139C326.386 54.139 330.42 49.6925 330.42 43.9601C330.42 38.2277 326.422 33.7812 320.198 33.7812ZM320.235 50.2203C317.22 50.2203 315.333 47.4663 315.333 43.9601C315.333 40.4539 317.141 37.6999 320.119 37.6999C323.098 37.6999 324.948 40.4539 324.948 43.9601C324.948 47.4663 323.177 50.2203 320.235 50.2203V50.2203Z" fill="white"/>
<path d="M357.868 33.9707C355.642 33.9707 353.04 34.6865 350.741 37.9318V34.3104H345.463V53.6126H350.741V42.3783C353.458 38.7568 355.303 37.9318 356.437 37.9318C357.68 37.9318 358.093 38.8357 358.093 41.2136V53.6187H363.407V39.4059C363.407 35.7845 361.557 33.9768 357.862 33.9768L357.868 33.9707Z" fill="white"/>
<path d="M378.341 48.1456C376.946 49.0494 376.152 49.3163 375.587 49.3163C374.72 49.3163 374.532 48.7158 374.532 46.5623V37.9667H378.978V34.3089H374.532V28.54H369.558V34.3089L366.464 34.8002V37.9667H369.558V49.9593C369.558 52.8225 370.801 54.1449 373.555 54.1449C375.933 54.1449 378.044 52.9742 380.04 51.7306L378.341 48.1516V48.1456Z" fill="white"/>
<path d="M276.535 50.1478C274.739 50.1478 273.429 49.4623 272.525 48.4129C280.817 45.7195 284.645 42.9655 284.645 39.6656C284.645 35.8925 281.667 33.7451 276.802 33.7451C271.937 33.7451 265.98 37.0633 265.98 44.4881C265.98 50.3722 269.826 54.1392 275.898 54.1392C278.955 54.1392 281.97 53.3082 284.797 51.7249L282.874 47.9518C280.987 49.1226 278.955 50.1417 276.541 50.1417L276.535 50.1478ZM275.971 37.403C278.118 37.3666 279.513 38.3068 279.513 39.4776C279.513 41.631 277.087 43.2385 271.13 45.4708C270.99 44.8218 270.918 44.1484 270.918 43.4751C270.918 38.9862 273.593 37.4394 275.971 37.403V37.403Z" fill="white"/>
<path d="M296.183 33.8176C293.471 33.8176 290.638 34.3817 288.266 35.4372V60.9996H293.471V53.5323C294.411 53.9448 295.43 54.1328 296.601 54.1328C302.782 54.1328 307.308 49.4195 307.308 43.0501C307.308 36.6808 301.951 33.8115 296.183 33.8115V33.8176ZM296.255 50.5235C295.012 50.5235 294.066 50.2566 293.465 49.7713V38.4581C294.745 37.8576 295.612 37.5907 296.668 37.5907C299.798 37.5907 301.757 39.8533 301.757 43.3231C301.757 47.2054 299.191 50.5235 296.249 50.5235H296.255Z" fill="white"/>
<path d="M339.579 34.3096H334.302V53.6118H339.579V34.3096Z" fill="white"/>
<path d="M336.905 23.8643C334.945 23.8643 333.398 25.4111 333.398 27.4068C333.398 29.4026 334.945 30.913 336.905 30.913C338.864 30.913 340.447 29.3662 340.447 27.4068C340.447 25.4475 338.9 23.8643 336.905 23.8643Z" fill="white"/>
<rect width="32.2032" height="1.98049" transform="matrix(0.697853 0.716241 -0.754012 0.65686 171.566 26.5635)" fill="white"/>
<rect width="32.2031" height="1.98049" transform="matrix(0.711125 -0.703066 0.741597 0.670845 169.871 49.4033)" fill="white"/>
</svg>
