<svg width="404" height="100" viewBox="0 0 404 100" fill="none" xmlns="http://www.w3.org/2000/svg">
<path d="M19.71 39.42C30.5955 39.42 39.42 30.5955 39.42 19.71C39.42 8.82447 30.5955 0 19.71 0C8.82447 0 0 8.82447 0 19.71C0 30.5955 8.82447 39.42 19.71 39.42Z" fill="#173AFF"/>
<path d="M19.71 75.9999C30.5955 75.9999 39.42 70.2646 39.42 63.1899C39.42 56.1151 30.5955 50.3799 19.71 50.3799C8.82447 50.3799 0 56.1151 0 63.1899C0 70.2646 8.82447 75.9999 19.71 75.9999Z" fill="#173AFF"/>
<path d="M19.71 99.6301C30.5955 99.6301 39.42 97.3333 39.42 94.5001C39.42 91.6669 30.5955 89.3701 19.71 89.3701C8.82447 89.3701 0 91.6669 0 94.5001C0 97.3333 8.82447 99.6301 19.71 99.6301Z" fill="#173AFF"/>
<path d="M88.136 64.96C97.244 64.96 103.976 58.444 103.976 49.552C103.976 40.66 97.244 34.144 88.136 34.144C79.028 34.144 72.296 40.66 72.296 49.552C72.296 58.444 79.028 64.96 88.136 64.96ZM88.136 59.056C82.808 59.056 78.848 55.06 78.848 49.552C78.848 44.008 82.808 40.048 88.136 40.048C93.464 40.048 97.424 44.008 97.424 49.552C97.424 55.06 93.464 59.056 88.136 59.056ZM107.689 73.024H114.097V62.08C115.357 63.772 117.373 64.744 120.145 64.744C126.193 64.744 130.405 60.1 130.405 53.692C130.405 47.284 126.193 42.64 120.145 42.64C117.373 42.64 115.357 43.612 114.097 45.304V43.144H107.689V73.024ZM119.137 59.272C116.005 59.272 113.989 56.932 113.989 53.692C113.989 50.452 116.005 48.112 119.137 48.112C122.197 48.112 124.141 50.452 124.141 53.692C124.141 56.932 122.197 59.272 119.137 59.272ZM144.062 64.744C149.174 64.744 153.314 61.972 154.394 57.94H147.95C147.41 58.948 145.898 59.596 144.062 59.596C141.65 59.596 139.958 58.192 139.454 55.744H154.898C155.006 54.988 155.042 54.304 155.042 53.692C155.042 47.248 150.506 42.64 144.062 42.64C137.618 42.64 133.082 47.284 133.082 53.692C133.082 60.136 137.618 64.744 144.062 64.744ZM139.418 51.604C139.958 49.084 141.542 47.716 144.062 47.716C146.582 47.716 148.238 49.084 148.778 51.604H139.418ZM158.807 64.24H165.215V53.404C165.215 50.128 166.727 48.148 169.247 48.148C171.659 48.148 172.955 49.912 172.955 53.116V64.24H179.363V52.036C179.363 46.204 176.015 42.64 171.119 42.64C168.419 42.64 166.475 43.612 165.215 45.304V43.144H158.807V64.24ZM193.967 34.9V64.24H200.519V34.9H193.967ZM205.529 64.24H211.937V53.404C211.937 50.128 213.449 48.148 215.969 48.148C218.381 48.148 219.677 49.912 219.677 53.116V64.24H226.085V52.036C226.085 46.204 222.737 42.64 217.841 42.64C215.141 42.64 213.197 43.612 211.937 45.304V43.144H205.529V64.24ZM230.42 64.24H236.828V53.404C236.828 50.128 238.34 48.148 240.86 48.148C243.272 48.148 244.568 49.912 244.568 53.116V64.24H250.976V52.036C250.976 46.204 247.628 42.64 242.732 42.64C240.032 42.64 238.088 43.612 236.828 45.304V43.144H230.42V64.24ZM265.426 42.64C258.91 42.64 254.23 47.284 254.23 53.692C254.23 60.1 258.91 64.744 265.426 64.744C271.942 64.744 276.622 60.1 276.622 53.692C276.622 47.284 271.942 42.64 265.426 42.64ZM265.426 48.112C268.45 48.112 270.43 50.452 270.43 53.692C270.43 56.932 268.45 59.272 265.426 59.272C262.402 59.272 260.422 56.932 260.422 53.692C260.422 50.452 262.402 48.112 265.426 48.112ZM293.685 43.144L288.969 56.896L284.253 43.144H277.305L285.405 64.24H292.065L300.165 43.144H293.685ZM311.108 64.744C313.88 64.744 315.896 63.772 317.156 62.08V64.24H323.564V43.144H317.156V45.304C315.896 43.612 313.88 42.64 311.108 42.64C305.06 42.64 300.848 47.284 300.848 53.692C300.848 60.1 305.06 64.744 311.108 64.744ZM312.116 59.272C309.056 59.272 307.112 56.932 307.112 53.692C307.112 50.452 309.056 48.112 312.116 48.112C315.248 48.112 317.264 50.452 317.264 53.692C317.264 56.932 315.248 59.272 312.116 59.272ZM341.324 43.144H337.148V36.88H330.74V43.144H326.564V48.652H330.74V64.24H337.148V48.652H341.324V43.144ZM347.53 32.956C345.262 32.956 343.606 34.612 343.606 36.88C343.606 39.148 345.262 40.804 347.53 40.804C349.798 40.804 351.454 39.148 351.454 36.88C351.454 34.612 349.798 32.956 347.53 32.956ZM350.734 43.144H344.326V64.312H350.734V43.144ZM365.657 42.64C359.141 42.64 354.461 47.284 354.461 53.692C354.461 60.1 359.141 64.744 365.657 64.744C372.173 64.744 376.853 60.1 376.853 53.692C376.853 47.284 372.173 42.64 365.657 42.64ZM365.657 48.112C368.681 48.112 370.661 50.452 370.661 53.692C370.661 56.932 368.681 59.272 365.657 59.272C362.633 59.272 360.653 56.932 360.653 53.692C360.653 50.452 362.633 48.112 365.657 48.112ZM380.607 64.24H387.015V53.404C387.015 50.128 388.527 48.148 391.047 48.148C393.459 48.148 394.755 49.912 394.755 53.116V64.24H401.163V52.036C401.163 46.204 397.815 42.64 392.919 42.64C390.219 42.64 388.275 43.612 387.015 45.304V43.144H380.607V64.24Z" fill="#173AFF"/>
</svg>
