<svg width="733" height="434" viewBox="0 0 733 434" fill="none" xmlns="http://www.w3.org/2000/svg">
<g opacity="0.6">
<path d="M722.377 62.7828C719.889 57.6792 717.48 52.5491 715.005 47.4322C719.21 56.0936 724.812 67.6598 729.017 76.3211L728.791 75.8547C726.662 71.4974 724.506 67.1401 722.377 62.7828Z" fill="white"/>
<path d="M706.622 37.4251C707.274 37.7049 707.873 38.0114 708.431 38.3312C712.317 46.3929 716.216 54.4412 720.102 62.503C718.319 58.0524 715.324 50.6036 710.707 39.9968C711.08 40.3566 711.426 40.7164 711.732 41.1161L730.295 79.4126C729.962 78.9861 729.576 78.5731 729.15 78.1866C725.384 70.4048 721.619 62.6096 717.839 54.8277C721.379 63.036 723.561 68.3127 726.848 76.5476C726.329 76.2545 725.784 75.988 725.198 75.7348L706.635 37.4384" fill="white"/>
<path d="M717.241 65.8875L707.008 44.7805C706.622 44.6872 706.236 44.594 705.837 44.514C702.696 44.3541 710.654 60.4909 714.3 64.3551C715.245 65.3545 715.777 65.5278 716.083 65.6344C716.482 65.7143 716.868 65.8076 717.241 65.9009M701.978 35.9993C703.149 36.2524 704.213 36.5589 705.211 36.9054L723.774 75.2018C722.736 74.842 721.592 74.5222 720.368 74.269C710.813 71.2842 696.841 38.651 700.634 36.1725C701.126 35.8527 701.765 35.9726 701.978 36.0126" fill="white"/>
<path d="M679.196 35.4929C683.029 35.1331 686.529 34.9332 689.709 34.9199L693.874 43.5146C692.903 43.5146 691.905 43.5413 690.88 43.5813L705.278 73.283C703.947 73.3363 702.563 73.4029 701.139 73.5095L686.741 43.8078C685.65 43.8877 684.519 43.981 683.362 44.0876L679.196 35.4929Z" fill="white"/>
<path d="M660.527 38.2112C662.403 37.8648 664.226 37.545 666.009 37.2518L672.982 51.6296C675.258 51.2565 677.44 50.9234 679.556 50.6436L672.583 36.2657C674.233 36.0392 675.83 35.8527 677.373 35.6794L695.936 73.9759C694.393 74.1358 692.796 74.3357 691.146 74.5622L683.721 59.2383C681.618 59.5181 679.423 59.8512 677.147 60.2243L684.572 75.5482C682.803 75.8414 680.966 76.1612 679.09 76.5077L660.527 38.2112Z" fill="white"/>
<path d="M643.055 41.9289C643.893 41.7291 644.718 41.5425 645.543 41.3426C649.349 40.4632 652.995 39.677 656.468 38.9841L675.031 77.2805C671.545 77.9734 667.912 78.7596 664.106 79.6391C663.281 79.8256 662.456 80.0255 661.618 80.2254L657.453 71.6307C658.291 71.4308 659.116 71.2442 659.941 71.0444C661.711 70.6313 663.441 70.2449 665.131 69.8851L661.95 63.3158C660.247 63.6889 658.517 64.0753 656.761 64.4751C656.016 64.6483 655.27 64.8215 654.525 64.9948L650.36 56.4C651.105 56.2268 651.864 56.0536 652.596 55.8804C654.366 55.4673 656.095 55.0809 657.785 54.7211L654.898 48.7647C653.195 49.1378 651.465 49.5243 649.708 49.924C648.883 50.1106 648.058 50.3105 647.22 50.5103L643.055 41.9156" fill="white"/>
<path d="M612.875 50.0573C618.051 48.5249 623.095 47.0858 628.005 45.7533L646.568 84.0497C644.372 84.6493 642.137 85.2623 639.888 85.9019L632.808 71.3109C630.134 72.0704 627.419 72.8566 624.665 73.6694L620.5 65.0747C623.254 64.2619 625.969 63.4757 628.643 62.7162L625.476 56.2002C622.695 56.9864 619.888 57.7992 617.027 58.652L612.861 50.0573" fill="white"/>
<path d="M611.145 72.6967L605.982 62.0366C605.024 62.3297 604.079 62.6362 603.107 62.9427C597.199 65.1147 601.338 71.9638 604.132 73.3496C605.929 74.2424 607.512 73.8027 608.35 73.5761C609.282 73.283 610.213 72.9898 611.145 72.6967ZM599.382 54.2147C602.602 53.1887 605.782 52.2026 608.923 51.2565L627.486 89.553C625.144 90.2592 622.762 90.9921 620.367 91.7516L614.365 79.3859C614.365 79.3859 614.312 79.3992 614.285 79.4125C613.979 84.8225 613.82 87.6874 613.434 93.9636C610.519 94.9097 607.579 95.8824 604.598 96.8685C605.223 91.8449 605.716 87.7807 606.501 81.1182C594.192 81.5712 587.765 63.5023 593.207 57.6393C594.458 56.2934 596.521 55.1475 599.355 54.228" fill="white"/>
<path d="M582.961 95.1629C592.568 91.0321 586.154 75.8681 578.011 72.75C569.747 69.5919 564.477 77.8668 568.909 87.0345C571.943 93.3107 578.117 96.8818 582.947 95.1629M567.964 63.9687C586.594 58.5854 602.908 83.9831 594.604 97.588C586.194 111.366 564.158 104.011 558.889 85.6487C556.107 75.948 559.927 66.8336 567.977 63.9554" fill="white"/>
<path d="M519.953 83.0503C522.721 81.931 525.488 80.8383 528.23 79.759C532.022 87.874 535.815 96.0023 539.607 104.117C539.793 100.226 540.339 88.367 540.871 74.842C543.306 73.9093 545.728 72.9898 548.137 72.0837L566.7 110.38C564.025 111.393 561.337 112.406 558.623 113.445C554.923 105.623 551.211 97.7879 547.511 89.966C547.006 100.12 546.593 107.808 546.008 118.362C543.519 119.348 541.018 120.347 538.503 121.347L519.939 83.0503" fill="white"/>
<path d="M494.004 93.7504C501.523 90.5657 508.988 87.4876 516.373 84.5028L520.538 93.0975C518.289 94.0036 516.04 94.923 513.778 95.8558L528.176 125.557C525.249 126.757 522.308 127.969 519.367 129.209L504.969 99.5069C502.707 100.453 500.445 101.399 498.169 102.358L494.004 93.7637" fill="white"/>
<path d="M481.483 99.1071C484.463 97.8146 487.444 96.5353 490.412 95.2828L508.975 133.579C506.007 134.845 503.026 136.124 500.046 137.404L481.483 99.1071Z" fill="white"/>
<path d="M455.481 110.58C462.055 107.609 468.602 104.704 475.122 101.852L493.685 140.148C487.165 143 480.618 145.905 474.044 148.876L469.879 140.282C473.552 138.616 477.224 136.977 480.897 135.351L477.717 128.782C474.164 130.355 470.598 131.954 467.031 133.553L462.866 124.958C466.432 123.346 469.999 121.76 473.552 120.187L470.664 114.231C467.005 115.857 463.332 117.496 459.646 119.161L455.481 110.567" fill="white"/>
<path d="M450.504 136.364L445.341 125.704C444.184 126.237 443.026 126.77 441.881 127.303C434.656 130.968 438.981 137.55 442.214 138.536C444.237 139.149 446.126 138.35 447.151 137.91C448.269 137.39 449.4 136.871 450.518 136.351M438.249 118.455C442.134 116.656 446.02 114.871 449.892 113.112L468.455 151.408C465.554 152.727 462.653 154.06 459.753 155.392L453.751 143.027C453.751 143.027 453.685 143.053 453.645 143.067C453.343 144.879 452.598 150.276 451.409 159.257C447.936 160.882 444.476 162.508 441.003 164.16C442.121 158.297 443.239 152.421 444.357 146.558C431.209 149.263 424.423 132.7 429.958 124.491C431.396 122.373 434.097 120.387 438.235 118.455" fill="white"/>
<path d="M407.097 132.367C420.125 126.757 428.934 137.91 425.434 146.798C423.531 151.608 418.009 154.033 417.091 159.497C416.572 162.641 419.805 165.186 422.586 163.827C423.651 163.308 425.886 161.589 423.811 156.792C426.831 155.339 429.852 153.887 432.873 152.448L433.272 153.274C440.471 169.757 421.668 175.98 414.775 172.955C409.825 170.783 407.643 165.306 407.177 162.721C406.259 157.631 410.211 152.754 413.098 149.183C415.467 146.251 417.051 144.026 415.893 141.907C414.15 138.736 409.892 140.175 409.492 142.627C409.306 143.786 409.652 144.959 409.892 145.718C406.897 147.184 403.903 148.65 400.909 150.129C395.573 138.163 405.913 132.926 407.097 132.367Z" fill="white"/>
<path d="M381.907 182.776L378.514 175.793C376.97 176.593 375.413 177.392 373.87 178.192C368.281 181.283 372.313 185.401 373.896 185.787C375.28 186.12 376.598 185.494 377.303 185.147C378.833 184.348 380.363 183.562 381.907 182.776ZM374.562 167.612L371.674 161.655C370.476 162.268 369.279 162.895 368.081 163.521C363.41 166.093 366.777 169.65 368.108 169.997C369.252 170.303 370.397 169.744 371.009 169.45C372.193 168.838 373.377 168.225 374.562 167.612ZM364.861 154.433C368.6 152.501 372.353 150.569 376.118 148.663L394.682 186.96C390.769 188.945 386.884 190.944 382.998 192.956C363.73 202.803 361.414 183.975 362.306 180.897C362.878 178.898 363.969 177.619 364.675 176.766C355.546 175.847 352.485 163.388 359.937 157.445C361.361 156.299 363.424 155.193 364.861 154.446" fill="white"/>
<path d="M326.564 174.847C332.845 171.396 339.192 167.971 345.58 164.56L364.143 202.857C357.742 206.268 351.408 209.692 345.127 213.144L340.962 204.549C344.475 202.617 348.015 200.698 351.568 198.779L348.387 192.21C344.941 194.075 341.508 195.941 338.101 197.806L333.936 189.212C337.343 187.346 340.776 185.467 344.222 183.615L341.335 177.659C337.782 179.578 334.242 181.496 330.729 183.429L326.564 174.834" fill="white"/>
<path d="M295.625 192.29C298.606 190.571 301.6 188.839 304.621 187.12C308.759 191.304 312.898 195.488 317.036 199.672C316.198 193.622 315.373 187.573 314.535 181.51C317.622 179.777 320.722 178.059 323.849 176.326C324.488 187.319 324.807 192.756 325.632 206.281L332.379 220.206C329.531 221.805 326.71 223.404 323.889 225.003L317.143 211.078C309.442 204.371 302.266 198.108 295.612 192.29" fill="white"/>
<path d="M294.454 232.079C304.195 225.483 297.768 210.119 289.544 208.427C280.269 206.521 275.426 218.82 281.8 228.068C284.607 232.132 289.597 234.957 294.454 232.065M279.484 200.831C296.743 191.797 313.057 211.478 307.788 228.494C302.545 245.43 281.653 249.295 272.525 230.44C267.175 219.366 270.223 206.361 279.484 200.844" fill="white"/>
<path d="M234.933 229.72C237.195 228.228 239.497 226.722 241.839 225.19C245.645 233.331 249.464 241.473 253.27 249.614C253.19 245.244 253.03 234.997 252.95 218.074C255.146 216.688 257.355 215.302 259.577 213.916L278.14 252.213C275.665 253.759 273.217 255.291 270.781 256.837C267.069 249.002 263.356 241.153 259.644 233.318C259.604 247.696 259.644 255.691 259.737 263.926C257.621 265.298 255.532 266.671 253.496 268.03L234.933 229.733" fill="white"/>
<path d="M237.967 267.084L227.734 245.977C226.736 246.67 225.738 247.349 224.753 248.029C216.849 254.198 226.363 269.802 231.486 270.202C233.056 270.322 234.294 269.576 235.026 269.122C235.997 268.443 236.982 267.777 237.98 267.097M221.386 238.901C224.287 236.902 227.268 234.877 230.328 232.825L248.891 271.121C245.671 273.28 242.531 275.412 239.497 277.517C222.437 288.151 212.404 259.035 214.6 248.508C215.185 245.697 216.449 242.366 221.386 238.914" fill="white"/>
<path d="M185.364 265.618C189.383 262.353 193.708 258.969 198.325 255.478L202.49 264.072C201.08 265.138 199.709 266.191 198.365 267.23L212.763 296.932C211.02 298.278 209.317 299.61 207.667 300.93L193.269 271.228C192.005 272.241 190.754 273.24 189.543 274.226L185.378 265.631" fill="white"/>
<path d="M169.809 279.103C171.046 277.944 172.324 276.771 173.654 275.585L180.627 289.963C182.331 288.444 184.114 286.885 185.963 285.299L178.991 270.921C180.441 269.682 181.945 268.43 183.488 267.15L202.051 305.447C200.508 306.726 199.004 307.979 197.554 309.218L190.128 293.894C188.265 295.48 186.496 297.039 184.792 298.558L192.218 313.882C190.887 315.068 189.609 316.24 188.372 317.399L169.809 279.103Z" fill="white"/>
<path d="M160.294 288.604C162.383 286.339 164.712 283.98 167.254 281.528L185.817 319.825C183.275 322.276 180.96 324.635 178.857 326.9L174.692 318.306C175.863 317.04 177.101 315.734 178.418 314.415L175.238 307.845C173.96 309.138 172.763 310.39 171.618 311.616L167.453 303.022C168.598 301.796 169.795 300.53 171.073 299.251L168.185 293.294C166.868 294.627 165.63 295.919 164.459 297.185L160.294 288.59" fill="white"/>
<path d="M150.367 301.183C151.525 299.331 152.909 297.385 154.506 295.346L173.069 333.643C172.35 334.549 171.685 335.455 171.046 336.321L163.967 321.73C163.222 322.769 162.53 323.782 161.918 324.768L157.753 316.174C158.378 315.187 159.057 314.175 159.802 313.135L156.635 306.619C155.863 307.699 155.158 308.751 154.506 309.764L150.341 301.169" fill="white"/>
<path d="M157.58 324.182L152.417 313.522C152.27 313.828 152.124 314.135 151.977 314.428C151.272 316.44 155.703 326.101 156.968 325.315C157.047 325.261 157.114 325.155 157.167 325.061C157.3 324.768 157.447 324.475 157.593 324.182M147.892 305.7C148.371 304.687 148.917 303.648 149.542 302.569L168.105 340.865C167.64 341.678 167.201 342.464 166.828 343.224L160.827 330.858C160.827 330.858 160.827 330.871 160.827 330.884C162.49 335.761 163.727 339.399 165.857 345.382C165.497 346.248 165.205 347.101 164.978 347.914C162.916 342.304 161.705 338.96 159.469 332.523C156.422 332.004 145.87 310.204 147.906 305.713" fill="white"/>
<path d="M160.507 344.489C160.081 340.718 151.578 322.836 149.675 321.717C148.837 323.103 160.241 344.543 160.414 344.663C160.441 344.609 160.507 344.543 160.507 344.489ZM145.404 313.309C145.417 313.215 145.444 313.095 145.457 313.002C149.489 313.122 165.151 349.127 164.646 353.417C164.02 353.257 163.621 353.151 152.709 330.405C148.997 322.676 145.391 314.988 145.404 313.309Z" fill="white"/>
<path d="M150.793 322.316C150.247 321.983 149.742 321.637 149.276 321.264C151.192 325.208 153.121 329.166 155.038 333.11C157.047 337.254 159.07 341.385 161.079 345.529C158.351 340.425 153.774 331.87 147.466 319.372C147.173 318.972 146.92 318.559 146.708 318.132L165.271 356.429C165.51 356.908 165.79 357.362 166.122 357.801C162.33 349.993 158.537 342.184 154.758 334.376C159.668 344.05 162.889 350.193 167.972 359.667C168.398 360 168.85 360.32 169.356 360.613L150.793 322.316Z" fill="white"/>
<path d="M157.154 324.702C154.958 324.209 153.082 323.542 151.525 322.716L155.69 331.311C156.169 331.564 156.661 331.791 157.194 332.017L171.592 361.719C172.284 361.999 173.015 362.265 173.814 362.505L159.416 332.803C160.015 332.99 160.653 333.15 161.319 333.296L157.154 324.702Z" fill="white"/>
<path d="M161.079 325.381C160.081 325.261 159.123 325.101 158.218 324.928L176.781 363.225C177.686 363.398 178.631 363.558 179.642 363.678L161.079 325.381Z" fill="white"/>
<path d="M170.979 325.808C168.185 325.861 165.617 325.794 163.288 325.608L181.851 363.904C184.18 364.091 186.748 364.171 189.542 364.104L185.377 355.509C183.807 355.536 182.317 355.536 180.893 355.483L177.713 348.913C179.083 348.953 180.534 348.967 182.051 348.94L177.886 340.345C176.369 340.372 174.918 340.359 173.548 340.319L170.66 334.362C172.084 334.416 173.574 334.416 175.144 334.389L170.979 325.794" fill="white"/>
<path d="M186.775 344.743L181.612 334.082C182.157 334.043 182.716 333.989 183.288 333.949C184.925 333.923 186.522 335.175 188.039 337.68C188.851 339.039 190.7 342.837 189.449 344.17C189.13 344.503 188.784 344.556 188.411 344.623C187.866 344.676 187.32 344.716 186.788 344.756M178.87 325.395C176.981 325.554 175.171 325.674 173.441 325.754L192.004 364.051C193.295 363.997 194.639 363.917 196.023 363.811L190.022 351.445C190.022 351.445 190.048 351.445 190.062 351.445C193.495 355.603 195.89 358.494 200.108 363.451C201.865 363.265 203.688 363.051 205.564 362.798C201.346 358.281 198.831 355.589 194.147 350.379C199.31 346.541 188.984 326.78 181.159 325.501C180.081 325.328 179.203 325.395 178.87 325.421" fill="white"/>
<path d="M195.198 322.41C187.759 324.328 192.922 338.706 201.133 343.663C203.927 345.356 207.374 345.875 209.676 348.447C211.353 350.312 212.005 353.71 210.381 353.99C209.756 354.097 208.039 353.844 205.631 349.14C203.874 349.433 202.157 349.686 200.494 349.926L200.893 350.752C209.29 367.275 217.287 362.079 218.272 358.854C219.709 354.19 215.451 347.154 214.959 346.368C212.51 342.451 209.17 340.425 204.579 338.44C200.973 336.881 199.749 336.095 198.618 333.909C197.221 331.231 198.937 329.392 200.933 331.417C201.718 332.217 202.344 333.27 202.77 333.976C204.593 333.643 206.482 333.283 208.398 332.91C202.41 321.09 195.477 322.343 195.198 322.396" fill="white"/>
<path d="M236.755 347.048L233.362 340.065C234.507 339.772 235.664 339.479 236.835 339.186C241.333 338.187 242.717 343.783 241.746 345.209C241.306 345.849 240.628 346.048 240.189 346.182C239.031 346.475 237.887 346.768 236.755 347.061M229.41 331.897L226.522 325.941C227.414 325.714 228.306 325.488 229.21 325.261C229.809 325.128 231.206 324.822 232.364 326.234C232.91 326.9 234.267 329.099 233.402 330.391C233.043 330.924 232.457 331.111 232.058 331.231C231.167 331.457 230.288 331.684 229.41 331.91M224.34 316.866C221.546 317.586 218.791 318.266 216.09 318.905L234.653 357.202C237.447 356.535 240.308 355.829 243.223 355.083C257.394 351.312 246.882 336.374 242.85 334.043C241.506 333.27 240.322 333.016 239.616 332.857C242.091 328.153 237.421 313.548 224.327 316.866" fill="white"/>
<path d="M255.106 308.072C249.703 309.751 244.433 311.323 239.284 312.789L257.847 351.085C262.983 349.62 268.266 348.047 273.669 346.368L269.504 337.774C266.483 338.706 263.502 339.612 260.561 340.492L257.381 333.923C260.229 333.083 263.13 332.204 266.057 331.298L261.892 322.703C258.965 323.609 256.077 324.488 253.216 325.328L250.328 319.372C253.269 318.505 256.25 317.599 259.271 316.653L255.106 308.059" fill="white"/>
<path d="M283.223 298.811C280.362 299.797 277.528 300.77 274.733 301.716C276.051 309.498 276.29 310.897 277.608 318.612C273.616 313.988 269.637 309.351 265.671 304.714C262.904 305.62 260.162 306.486 257.448 307.339C262.225 312.349 268.186 318.599 278.14 328.872L284.887 342.797C287.441 341.958 290.023 341.105 292.631 340.239L285.885 326.314C285.419 321.677 284.461 312.016 283.223 298.824" fill="white"/>
<path d="M313.696 323.649C302.625 326.914 294.76 310.95 299.005 304.048C303.529 296.692 315.732 302.155 318.194 312.642C319.405 317.799 317.595 322.21 313.683 323.649M298.446 292.535C280.548 300.263 290.409 326.434 305.459 331.897C321.667 337.787 333.27 322.37 325.18 305.727C319.963 294.987 307.961 289.07 298.446 292.535Z" fill="white"/>
<path d="M348.653 273.959C345.859 275.105 343.064 276.238 340.296 277.357C344.328 285.379 348.374 293.401 352.406 301.423C347.123 297.425 339.125 291.375 327.508 282.421C325.047 283.38 322.598 284.34 320.15 285.273L338.713 323.569C341.427 322.53 344.142 321.464 346.883 320.398C343.024 312.629 339.165 304.86 335.319 297.092C344.115 303.741 350.702 308.685 359.644 315.321C362.159 314.308 364.688 313.282 367.216 312.243L348.653 273.946" fill="white"/>
<path d="M377.702 297.572L367.469 276.465C368.813 275.892 370.157 275.332 371.514 274.759C382.24 270.801 388.52 285.686 386.258 291.522C385.207 294.214 382.838 295.346 381.707 295.893C380.377 296.452 379.046 297.025 377.715 297.585M366.271 266.631C362.319 268.31 358.38 269.949 354.468 271.574L373.031 309.871C377.143 308.165 381.282 306.433 385.447 304.674C407.017 294.507 393.537 270.002 381.228 265.511C378.008 264.339 373.71 263.553 366.271 266.644" fill="white"/>
<path d="M423.89 241.006C416.186 244.591 408.494 248.109 400.816 251.56L404.981 260.155C407.31 259.102 409.652 258.049 411.981 256.997L426.379 286.698C429.399 285.326 432.433 283.94 435.454 282.541L421.056 252.839C423.385 251.773 425.713 250.694 428.042 249.601L423.877 241.006" fill="white"/>
<path d="M457.41 224.99C454.376 226.469 451.342 227.948 448.308 229.414L455.281 243.791C451.395 245.67 447.51 247.522 443.624 249.375L436.651 234.997C433.617 236.436 430.583 237.862 427.549 239.288L446.113 277.584C449.147 276.158 452.181 274.732 455.214 273.293L447.789 257.969C451.675 256.13 455.56 254.265 459.446 252.386L466.871 267.71C469.905 266.244 472.939 264.765 475.973 263.286L457.41 224.99Z" fill="white"/>
<path d="M483.505 211.971C476.985 215.289 470.424 218.58 463.851 221.832L482.414 260.128C488.987 256.877 495.548 253.585 502.068 250.267L497.903 241.673C494.257 243.525 490.584 245.377 486.925 247.216L483.744 240.647C487.297 238.861 490.85 237.076 494.39 235.277L490.225 226.682C486.685 228.481 483.132 230.28 479.579 232.052L476.692 226.096C480.365 224.257 484.024 222.405 487.67 220.552L483.505 211.958" fill="white"/>
<path d="M522.534 191.504C516.293 194.875 509.999 198.219 503.665 201.551L522.228 239.847C525.063 238.355 527.897 236.862 530.718 235.37L523.639 220.779C526.992 218.993 530.332 217.208 533.646 215.422L529.48 206.827C526.154 208.626 522.827 210.412 519.474 212.184L516.307 205.668C519.78 203.816 523.24 201.964 526.686 200.112L522.521 191.517" fill="white"/>
<path d="M544.89 203.643L539.727 192.983C540.818 192.383 541.922 191.77 543.014 191.17C550.026 187.599 552.581 195.075 551.463 198.273C550.758 200.285 549.028 201.324 548.097 201.884C547.032 202.47 545.968 203.056 544.903 203.656M538.356 182.869C534.683 184.908 530.984 186.933 527.272 188.958L545.835 227.255C548.616 225.736 551.384 224.217 554.138 222.698L548.137 210.332C548.137 210.332 548.203 210.292 548.23 210.279C555.136 214.303 556.241 214.956 562.003 218.34C565.263 216.515 568.496 214.689 571.716 212.864C566.607 210.212 561.484 207.56 556.36 204.922C566.061 195.914 557.305 180.35 547.804 179.857C545.382 179.737 542.295 180.724 538.343 182.882" fill="white"/>
<path d="M586.567 194.182C576.573 199.299 568.496 186.413 571.051 177.619C573.486 169.237 583.599 167.332 589.122 176.779C592.941 183.295 591.796 191.104 586.58 194.182M571.344 163.108C554.085 174.541 561.284 201.711 578.184 204.882C596.494 208.307 607.366 185.467 595.296 168.944C589.308 160.749 579.461 158.351 571.344 163.108Z" fill="white"/>
<path d="M616.707 136.084C615.869 136.631 615.03 137.177 614.179 137.71C612.648 138.696 611.092 139.695 609.535 140.681C613.553 148.69 617.572 156.685 621.604 164.693C617.998 162.082 609.561 155.952 598.184 147.824C595.948 149.21 593.686 150.595 591.424 151.995L609.987 190.291C612.502 188.745 615.004 187.213 617.492 185.667C613.646 177.912 609.801 170.157 605.942 162.401C615.044 168.784 620.167 172.409 628.803 178.552C630.134 177.712 631.451 176.859 632.755 176.02C633.607 175.473 634.445 174.927 635.283 174.394L616.72 136.098" fill="white"/>
<path d="M637.28 122.373C631.731 126.197 625.876 130.115 619.728 134.126L623.893 142.72C625.756 141.494 627.605 140.282 629.415 139.082L643.813 168.784C646.169 167.225 648.471 165.679 650.719 164.16L636.321 134.459C638.051 133.286 639.755 132.127 641.431 130.967L637.266 122.373" fill="white"/>
<path d="M646.195 116.15C644.146 117.602 642.043 119.081 639.888 120.574L658.451 158.87C660.593 157.378 662.696 155.912 664.758 154.446L646.195 116.15Z" fill="white"/>
<path d="M662.829 103.931C658.943 106.889 654.831 109.94 650.506 113.058L669.069 151.355C673.394 148.237 677.506 145.185 681.392 142.227L677.227 133.632C675.044 135.298 672.809 136.977 670.493 138.683L667.313 132.113C669.562 130.461 671.744 128.822 673.847 127.21L669.682 118.615C667.566 120.227 665.384 121.866 663.148 123.519L660.26 117.562C662.576 115.857 664.825 114.164 666.994 112.512L662.829 103.917" fill="white"/>
<path d="M680.274 116.869L675.111 106.209C675.736 105.716 676.348 105.21 676.96 104.717C681.059 101.759 684.026 109.86 683.601 112.725C683.374 114.258 682.536 115.017 682.084 115.417C681.485 115.897 680.886 116.376 680.274 116.869ZM672.516 96.3621C670.453 98.0277 668.311 99.72 666.102 101.439L684.665 139.735C686.329 138.456 687.939 137.177 689.509 135.924L683.507 123.559C683.507 123.559 683.547 123.532 683.561 123.519C687.154 126.557 689.562 128.609 693.9 132.38C695.683 130.927 697.387 129.488 699.05 128.076C694.951 124.678 692.663 122.799 687.952 119.041C692.969 110.647 682.709 92.6977 676.175 94.3633C674.552 94.7764 673.022 95.989 672.516 96.3887" fill="white"/>
<path d="M686.887 83.0769C681.831 88.4736 685.69 106.236 696.282 106.729C698.651 106.836 700.7 106.942 702.097 110.5C703.162 113.205 701.871 118.628 697.945 110.953C696.615 112.139 695.244 113.338 693.82 114.564L694.219 115.39C701.804 130.221 707.14 122.266 707.872 120.081C708.631 117.842 708.285 100.027 695.364 98.3742C693.474 98.1343 691.518 97.8812 690.467 94.6032C689.921 92.8976 690.467 87.9806 693.913 93.8303C695.164 92.6844 696.362 91.5517 697.52 90.4324C691.997 79.4525 687.979 82.0242 686.887 83.0769Z" fill="white"/>
<path d="M716.016 99.0271L712.623 92.0448C713.075 91.5251 713.514 91.0054 713.954 90.4991C715.683 88.6735 717.759 94.843 717.733 96.2022C717.733 96.9484 717.48 97.2815 717.334 97.4948C716.908 98.0011 716.469 98.5075 716.016 99.0271ZM708.671 83.8631L705.783 77.9068C706.129 77.507 706.475 77.094 706.821 76.7075C708.311 75.1485 710.068 80.3986 710.055 81.5579C710.055 82.1975 709.842 82.4773 709.695 82.6772C709.363 83.077 709.017 83.4634 708.671 83.8631ZM702.39 68.4326C701.325 69.6852 700.194 70.9644 698.983 72.2703L717.546 110.567C718.811 109.208 719.982 107.875 721.086 106.582C726.369 100.16 716.402 83.9564 713.368 83.3035C713.129 79.6124 707.433 62.7828 702.536 68.2861C702.496 68.326 702.443 68.3927 702.403 68.4326" fill="white"/>
<path d="M710.734 56.6266C709.789 58.3988 708.631 60.2776 707.234 62.2498L725.797 100.546C727.194 98.5741 728.352 96.6952 729.297 94.923L725.132 86.3283C724.599 87.3277 724.014 88.3404 723.335 89.4064L720.155 82.8371C720.807 81.8111 721.379 80.825 721.898 79.8523L717.733 71.2576C717.214 72.217 716.642 73.2164 715.99 74.2424L713.102 68.2861C713.768 67.2334 714.366 66.2073 714.899 65.208L710.734 56.6132" fill="white"/>
<path d="M713.541 48.5648C713.448 49.2711 713.315 50.004 713.115 50.7635C715.271 55.8137 716.988 59.7979 720.195 67.3933C718.292 63.9954 715.923 59.7713 712.277 53.3219C711.958 54.1481 711.572 54.9876 711.133 55.8537C713.887 60.3576 718.065 67.1667 724.16 77.4937L730.907 91.4185C731.199 90.6723 731.439 89.9394 731.625 89.2332L724.879 75.3084C722.55 69.7118 719.024 61.2637 713.541 48.5648Z" fill="white"/>
<path d="M728.219 75.4283C728.219 75.4283 728.219 75.5349 728.219 75.5749C726.675 74.922 717.387 54.6411 717.267 52.7623C718.278 53.5085 728.192 75.2684 728.205 75.4416M729.004 76.3344L714.992 47.4455L714.592 46.6194C713.674 44.7672 713.408 44.3008 713.142 44.0077C713.115 44.2475 713.169 44.5673 713.222 44.7938C716.509 56.2535 730.121 84.2762 732.384 84.2362C732.344 83.6233 732.064 82.6639 729.004 76.3344Z" fill="white"/>
<path d="M478.739 396.68C481.659 392.581 484.634 388.533 487.57 384.438C482.607 391.381 475.973 400.642 471.01 407.585L471.278 407.211C473.769 403.708 476.248 400.184 478.739 396.68Z" fill="#4061A6"/>
<path d="M491.812 373.669C491.87 374.295 491.885 374.892 491.873 375.463C487.241 381.903 482.626 388.348 477.994 394.788C480.704 391.515 485.236 386.029 491.539 377.941C491.417 378.384 491.283 378.806 491.101 379.214L469.144 409.889C469.335 409.449 469.494 408.974 469.614 408.478C474.079 402.25 478.553 396.016 483.012 389.777C478.12 396.009 474.936 399.943 469.916 405.99C469.925 405.462 469.901 404.924 469.851 404.36L491.808 373.685" fill="#4061A6"/>
<path d="M474.149 393.99L486.25 377.082C486.159 376.742 486.068 376.402 485.962 376.057C484.757 373.541 475.563 386.572 474.097 391.049C473.719 392.209 473.81 392.697 473.856 392.981C473.963 393.326 474.053 393.666 474.138 393.996M490.957 369.445C491.255 370.465 491.467 371.425 491.62 372.349L469.663 403.025C469.504 402.063 469.268 401.036 468.947 399.974C467.228 391.264 486.719 366.564 490.253 368.471C490.711 368.72 490.888 369.268 490.947 369.451" fill="#4061A6"/>
<path d="M481.711 351.474C483.613 354.309 485.249 356.952 486.606 359.425L481.677 366.309C481.266 365.552 480.823 364.785 480.359 364.003L463.33 387.795C462.725 386.78 462.088 385.73 461.402 384.665L478.431 360.873C477.907 360.057 477.356 359.215 476.783 358.357L481.711 351.474Z" fill="#4061A6"/>
<path d="M471.695 338.071C472.758 339.387 473.779 340.673 474.762 341.939L466.52 353.458C467.773 355.074 468.956 356.634 470.069 358.165L478.311 346.646C479.185 347.836 480.006 349.002 480.794 350.132L458.837 380.807C458.06 379.671 457.228 378.511 456.354 377.321L465.141 365.048C464.033 363.528 462.845 361.957 461.591 360.342L452.804 372.614C451.827 371.359 450.801 370.062 449.738 368.747L471.695 338.071Z" fill="#4061A6"/>
<path d="M461.407 326.025C461.917 326.594 462.412 327.158 462.916 327.717C465.212 330.311 467.366 332.821 469.376 335.235L447.418 365.91C445.404 363.486 443.254 360.986 440.959 358.392C440.465 357.828 439.96 357.269 439.45 356.701L444.378 349.817C444.888 350.386 445.383 350.95 445.888 351.509C446.958 352.713 447.991 353.898 448.986 355.063L452.754 349.804C451.743 348.635 450.71 347.45 449.656 346.25C449.205 345.742 448.755 345.235 448.305 344.727L453.233 337.843C453.683 338.351 454.139 338.869 454.584 339.366C455.654 340.571 456.687 341.756 457.682 342.921L461.097 338.149C460.086 336.98 459.053 335.795 457.999 334.595C457.504 334.031 457 333.472 456.489 332.903L461.417 326.02" fill="#4061A6"/>
<path d="M442.308 305.94C445.692 309.327 448.946 312.649 452.061 315.912L430.104 346.588C428.708 345.13 427.285 343.647 425.836 342.165L434.199 330.472C432.475 328.708 430.715 326.925 428.916 325.122L433.844 318.239C435.643 320.042 437.404 321.825 439.127 323.588L442.859 318.362C441.07 316.527 439.249 314.683 437.375 312.813L442.303 305.93" fill="#4061A6"/>
<path d="M423.952 314.172L430.066 305.636C429.433 305.014 428.794 304.407 428.144 303.779C423.954 300.093 420.373 306.217 420.477 308.982C420.542 310.76 421.554 311.808 422.085 312.366C422.708 312.968 423.33 313.57 423.952 314.172ZM433.362 297.182C435.524 299.258 437.637 301.32 439.702 303.367L417.745 334.042C416.205 332.516 414.626 330.969 413.021 329.423L420.108 319.513C420.108 319.513 420.075 319.477 420.053 319.462C415.712 321.513 413.415 322.6 408.366 324.955C406.396 323.084 404.394 321.203 402.365 319.297C406.541 317.659 409.913 316.323 415.431 314.116C409.87 304.713 421.216 292.057 428.084 293.818C429.661 294.224 431.425 295.346 433.341 297.167" fill="#4061A6"/>
<path d="M394.537 301.71C401.818 307.451 410.909 296.034 409.89 288.367C408.851 280.589 400.18 279.983 394.918 287.317C391.316 292.338 391.149 298.662 394.531 301.699M412.474 276.82C424.548 289.063 411.681 312.527 397.576 311.812C383.292 311.087 379.693 290.798 391.757 278.92C398.132 272.647 406.843 271.767 412.49 276.825" fill="#4061A6"/>
<path d="M377.303 247.471C379.346 249.154 381.368 250.85 383.368 252.53C378.656 258.92 373.933 265.315 369.221 271.706C372.328 270.204 381.791 265.611 392.545 260.303C394.302 261.806 396.042 263.305 397.767 264.799L375.81 295.474C373.89 293.818 371.964 292.151 370.006 290.475C374.53 284.281 379.058 278.072 383.582 271.879C375.463 275.781 369.303 278.713 360.84 282.723C359.02 281.2 357.183 279.673 355.341 278.136L377.298 247.46" fill="#4061A6"/>
<path d="M357.993 231.772C363.654 236.285 369.209 240.801 374.658 245.295L369.73 252.179C368.073 250.809 366.406 249.445 364.722 248.077L347.693 271.868C345.521 270.094 343.332 268.315 341.123 266.547L358.152 242.755C356.458 241.392 354.765 240.029 353.055 238.661L357.983 231.778" fill="#4061A6"/>
<path d="M348.525 224.279C350.792 226.055 353.049 227.837 355.28 229.62L333.323 260.295C331.082 258.518 328.825 256.736 326.568 254.954L348.525 224.279Z" fill="#4061A6"/>
<path d="M241.255 182.067L245.255 176.467C243.979 175.602 242.698 174.727 241.423 173.862C236.651 170.814 235.152 175.699 235.521 177.097C235.847 178.316 236.892 179.078 237.461 179.481C238.731 180.336 239.99 181.196 241.255 182.067ZM249.952 169.924L253.366 165.153C252.383 164.479 251.388 163.81 250.394 163.142C246.415 160.589 245.07 164.719 245.364 165.903C245.609 166.925 246.529 167.58 247.017 167.933C247.995 168.597 248.973 169.26 249.952 169.924ZM256.106 156.786C259.192 158.883 262.284 160.99 265.361 163.12L243.404 193.795C240.203 191.585 237.003 189.402 233.792 187.225C217.973 176.373 231.65 166.601 234.423 165.993C236.222 165.593 237.679 165.902 238.641 166.091C235.494 158.587 243.898 150.929 251.678 154.223C253.172 154.847 254.906 155.987 256.095 156.792" fill="#4061A6"/>
<path d="M224.008 135.573C229.353 139.008 234.705 142.507 240.063 146.042L218.106 176.717C212.742 173.172 207.396 169.683 202.051 166.248L206.979 159.364C209.97 161.285 212.962 163.232 215.959 165.19L219.727 159.931C216.816 158.034 213.911 156.147 211.017 154.281L215.946 147.398C218.839 149.264 221.755 151.145 224.655 153.047L228.07 148.276C225.073 146.319 222.081 144.371 219.09 142.451L224.019 135.567" fill="#4061A6"/>
<path d="M197.338 118.838C199.937 120.434 202.553 122.035 205.169 123.662C203.663 128.658 202.157 133.655 200.651 138.651C205.006 135.438 209.366 132.234 213.731 129.015C216.386 130.689 219.036 132.378 221.708 134.083C213.421 139.232 209.323 141.782 199.144 148.148L191.159 159.3C188.709 157.757 186.271 156.234 183.832 154.712L191.817 143.561C193.78 134.72 195.618 126.476 197.332 118.827" fill="#4061A6"/>
<path d="M165.868 134.762C175.125 139.564 184.365 128.052 182.203 120.926C179.761 112.89 168.137 114.319 163.635 123.201C161.66 127.109 161.572 132.194 165.879 134.757M183.858 109.87C198.195 119.501 189.777 140.546 174.301 143.639C158.898 146.719 147.049 132.069 157.864 116.975C164.221 108.119 175.634 104.991 183.848 109.876" fill="#4061A6"/>
<path d="M142.517 87.368C144.636 88.4998 146.782 89.6571 148.966 90.8342C144.239 97.246 139.517 103.668 134.789 110.08C138.158 108.168 146.067 103.708 159.207 96.4841C161.215 97.6092 163.229 98.7446 165.248 99.8904L143.291 130.566C141.04 129.29 138.811 128.03 136.577 126.786C141.106 120.577 145.644 114.362 150.173 108.152C138.963 114.205 132.756 117.62 126.385 121.177C124.421 120.108 122.469 119.061 120.549 118.049L142.506 87.3737" fill="#4061A6"/>
<path d="M114.714 105.544L126.815 88.6357C125.853 88.151 124.902 87.6606 123.956 87.1806C115.809 83.6301 107.688 97.6493 109.545 101.812C110.116 103.087 111.22 103.735 111.883 104.114C112.823 104.584 113.758 105.069 114.71 105.56M129.637 80.6939C132.421 82.1093 135.259 83.5756 138.151 85.0929L116.194 115.768C113.151 114.171 110.163 112.626 107.24 111.152C91.7432 102.354 110.163 82.2125 119.287 79.4694C121.723 78.7361 124.851 78.3118 129.627 80.6995" fill="#4061A6"/>
<path d="M93.5962 63.9212C97.8382 65.6722 102.303 67.6111 106.975 69.733L102.047 76.6165C100.62 75.9681 99.2204 75.3452 97.8425 74.7374L80.8136 98.5291C79.0282 97.7398 77.2702 96.976 75.545 96.248L92.5739 72.4564C91.2506 71.8995 89.9433 71.3474 88.6633 70.8208L93.5915 63.9372" fill="#4061A6"/>
<path d="M76.5161 57.5022C77.9422 57.9763 79.3956 58.4759 80.8819 59.0113L72.6399 70.5306C74.5432 71.2155 76.5115 71.9457 78.5286 72.7164L86.7705 61.1971C88.349 61.8033 89.9604 62.4453 91.6094 63.1072L69.6523 93.7824C68.0033 93.1205 66.3919 92.4785 64.8134 91.8723L73.6004 79.6C71.5776 78.8188 69.6151 78.099 67.7118 77.4141L58.9248 89.6865C57.4385 89.1511 55.9851 88.6515 54.5589 88.1775L76.5161 57.5022Z" fill="#4061A6"/>
<path d="M65.0938 54.1062C67.7413 54.7761 70.5627 55.5932 73.5469 56.5368L51.5898 87.212C48.6056 86.2684 45.7898 85.4617 43.1367 84.7814L48.0648 77.8979C49.5458 78.275 51.0861 78.687 52.6705 79.1556L56.4386 73.8967C54.8918 73.4479 53.41 73.0445 51.9714 72.6712L56.8995 65.7876C58.3381 66.1609 59.8304 66.5587 61.3668 67.0132L64.7816 62.2419C63.1868 61.7789 61.657 61.3612 60.176 60.9841L65.1042 54.1005" fill="#4061A6"/>
<path d="M51.1009 51.6913C53.0326 51.8099 55.1327 52.0654 57.3955 52.4473L35.4384 83.1226C34.4289 82.9459 33.442 82.8107 32.4975 82.6793L40.8604 70.9868C39.7359 70.8458 38.6548 70.7349 37.6282 70.6751L42.5563 63.7915C43.5886 63.8618 44.6641 63.9622 45.7885 64.1033L49.5208 58.8773C48.354 58.7324 47.2361 58.6281 46.1718 58.5484L51.1 51.6649" fill="#4061A6"/>
<path d="M36.2489 67.0456L42.3626 58.5101C42.0621 58.5257 41.7615 58.5413 41.4714 58.5512C39.6066 58.853 33.9612 66.3951 35.1081 67.0478C35.1834 67.0874 35.2946 67.0942 35.3897 67.0962C35.6742 67.0759 35.9644 67.0659 36.2545 67.056M46.5371 51.6736C47.5281 51.6184 48.5681 51.6039 49.673 51.6346L27.7159 82.3099C26.886 82.2908 26.0882 82.2812 25.3392 82.3122L32.4259 72.4015C32.4259 72.4015 32.4155 72.4071 32.4052 72.4127C29.3125 75.7731 27.0043 78.2771 23.2477 82.4684C22.4215 82.5549 21.6337 82.6876 20.9052 82.8552C24.3995 78.8736 26.4907 76.5144 30.5549 72.0483C29.67 69.4531 42.175 52.0028 46.5323 51.6896" fill="#4061A6"/>
<path d="M21.6791 77.9209C24.4345 75.9933 34.757 61.7981 34.8231 59.8412C33.3896 59.7742 21.525 77.736 21.5048 77.9216C21.5576 77.9198 21.6376 77.9435 21.6791 77.9209ZM39.561 52.9536C39.6393 52.9245 39.7439 52.8945 39.8221 52.8654C41.435 56.059 20.0345 83.5032 16.4804 84.9247C16.3402 84.3695 16.2542 84.0132 29.3437 65.8825C33.7891 59.7182 38.2484 53.6537 39.561 52.9536Z" fill="#4061A6"/>
<path d="M34.8292 60.9659C34.8576 60.3997 34.9134 59.8589 35.0067 59.338C32.7472 62.5007 30.4828 65.6794 28.2233 68.8421C25.8475 72.162 23.4877 75.4866 21.112 78.8064C23.9305 74.5205 28.653 67.3323 35.7139 57.1266C35.9012 56.7293 36.1158 56.3574 36.3576 56.011L14.4005 86.6862C14.1285 87.0759 13.894 87.4855 13.6925 87.9309C18.1663 81.6704 22.6401 75.41 27.1195 69.1599C21.6665 77.0811 18.2472 82.1906 13.0229 90.1621C12.9438 90.6349 12.8863 91.1229 12.8721 91.6411L34.8292 60.9659Z" fill="#4061A6"/>
<path d="M35.6641 66.9334C35.1188 65.0133 34.8435 63.2689 34.8278 61.7057L29.8996 68.5892C29.9052 69.0698 29.9372 69.5494 29.9861 70.0602L12.9572 93.8518C13.0322 94.5096 13.1344 95.1929 13.2855 95.9167L30.3145 72.1251C30.4227 72.6707 30.5684 73.2363 30.7359 73.817L35.6641 66.9334Z" fill="#4061A6"/>
<path d="M36.7961 70.2806C36.4671 69.452 36.1861 68.6375 35.9381 67.8588L13.981 98.5341C14.229 99.3127 14.5044 100.117 14.839 100.956L36.7961 70.2806Z" fill="#4061A6"/>
<path d="M40.6536 78.1782C39.4296 76.0226 38.3947 73.9925 37.5545 72.0984L15.5974 102.774C16.4376 104.668 17.4621 106.703 18.6965 108.853L23.6247 101.97C22.9394 100.757 22.3088 99.5955 21.7478 98.4631L25.5159 93.2042C26.0648 94.2895 26.6682 95.4257 27.3309 96.5969L32.259 89.7134C31.5963 88.5422 30.9929 87.406 30.4441 86.3207L33.8589 81.5494C34.4199 82.6818 35.0506 83.8435 35.7358 85.0562L40.664 78.1726" fill="#4061A6"/>
<path d="M32.5975 98.5031L38.7111 89.9676C38.9731 90.376 39.2511 90.7891 39.5244 91.2182C40.2377 92.4827 39.9384 94.2574 38.6302 96.5C37.9156 97.7078 35.742 100.757 34.1753 100.345C33.7809 100.238 33.5929 99.9904 33.3834 99.7282C33.111 99.3255 32.8491 98.9171 32.5927 98.5191M44.3144 84.1545C43.3903 82.7492 42.5311 81.3893 41.7369 80.0747L19.7798 110.75C20.3675 111.734 20.9984 112.747 21.6671 113.781L28.7537 103.87C28.7537 103.87 28.765 103.891 28.7706 103.901C26.987 108.337 25.7496 111.427 23.6758 116.813C24.5643 118.103 25.5018 119.434 26.4928 120.789C28.2243 115.59 29.2554 112.49 31.3292 106.635C36.5015 109.035 47.5152 92.6239 45.2 85.9836C44.8787 85.0702 44.4552 84.4138 44.2937 84.1657" fill="#4061A6"/>
<path d="M53.5472 95.6184C48.9058 90.6322 39.898 100.741 39.5135 109.238C39.3786 112.133 40.4325 115.039 39.4046 117.922C38.6619 120.018 36.2927 121.964 35.3879 120.817C35.0402 120.375 34.5109 118.93 37.1534 115.062C36.1819 113.817 35.2584 112.586 34.3679 111.391L33.8936 112.051C24.5841 125.588 32.0139 129.623 34.9409 129.026C39.1796 128.173 42.8547 121.876 43.2583 121.16C45.2719 117.594 45.4353 114.133 45.0382 109.714C44.7258 106.244 44.8198 104.957 46.0424 103.15C47.5361 100.928 49.694 101.488 48.9619 103.901C48.6718 104.851 48.1169 105.784 47.7474 106.415C48.7781 107.695 49.8578 109.015 50.9591 110.351C57.6261 100.682 53.7173 95.808 53.5576 95.6128" fill="#4061A6"/>
<path d="M51.9529 138.438L55.9525 132.838C56.665 133.606 57.3831 134.384 58.1068 135.173C60.788 138.256 57.017 141.703 55.496 141.549C54.8122 141.478 54.3695 141.033 54.0799 140.747C53.3618 139.969 52.6493 139.201 51.9425 138.443M60.6388 126.301L64.0537 121.529C64.6073 122.129 65.1609 122.728 65.7202 123.337C66.0773 123.748 66.9071 124.707 66.2975 126.207C66.0097 126.914 64.8725 128.903 63.5003 128.775C62.9333 128.721 62.5403 128.343 62.278 128.083C61.7244 127.484 61.1764 126.895 60.6284 126.306M70.1943 115.988C68.4516 114.115 66.757 112.255 65.116 110.42L43.1589 141.095C44.86 142.992 46.6205 144.923 48.4345 146.879C57.3671 156.33 64.5469 141.814 64.656 137.685C64.6889 136.31 64.3848 135.28 64.2109 134.662C68.92 134.601 78.3124 124.781 70.1887 115.978" fill="#4061A6"/>
<path d="M90.0593 136.248C86.4661 132.747 83.0122 129.305 79.692 125.911L57.7349 156.586C61.0495 159.97 64.509 163.422 68.1022 166.923L73.0304 160.04C71.026 158.08 69.0593 156.14 67.1302 154.22L70.8984 148.961C72.7569 150.825 74.6691 152.714 76.6132 154.613L81.5414 147.729C79.5973 145.831 77.6907 143.952 75.8265 142.077L79.2414 137.306C81.1601 139.232 83.1268 141.172 85.1415 143.126L90.0697 136.242" fill="#4061A6"/>
<path d="M109.167 154.246C107.189 152.433 105.232 150.636 103.313 148.858C97.8126 153.178 96.8248 153.957 91.3762 158.248C93.2864 153.18 95.2126 148.116 97.1444 143.063C95.2678 141.289 93.4336 139.519 91.621 137.764C89.7422 143.607 87.3999 150.899 83.6142 163.005L75.6292 174.156C77.3638 175.792 79.1201 177.444 80.8981 179.11L88.8831 167.959C92.2958 165.634 99.4109 160.799 109.157 154.252" fill="#4061A6"/>
<path d="M102.726 188.51C95.5 181.261 104.599 168.376 111.769 168.764C119.409 169.178 120.32 181.002 113.198 187.358C109.696 190.484 105.497 190.94 102.721 188.499M120.495 163.456C106.904 152.776 90.7042 171.536 92.8199 185.58C95.0935 200.705 112.005 203.226 121.538 189.877C127.691 181.266 127.218 169.407 120.495 163.456Z" fill="#4061A6"/>
<path d="M156.2 194.731C154.126 193.038 152.061 191.339 150.019 189.655C145.48 196.193 140.948 202.74 136.409 209.278C137.286 203.468 138.611 194.674 140.666 181.83C138.877 180.317 137.094 178.815 135.332 177.301L113.375 207.976C115.333 209.652 117.311 211.317 119.301 213.003C123.716 206.707 128.13 200.412 132.55 194.127C131.096 203.797 130.035 211.023 128.653 220.802C130.506 222.333 132.375 223.87 134.254 225.401L156.211 194.726" fill="#4061A6"/>
<path d="M150.112 227.366L162.212 210.458C163.227 211.263 164.232 212.074 165.252 212.89C172.871 219.575 163.942 230.769 158.442 231.476C155.901 231.795 154.017 230.428 153.113 229.778C152.115 228.978 151.106 228.183 150.107 227.382M169.361 205.363C166.381 202.993 163.439 200.616 160.518 198.255L138.561 228.93C141.628 231.413 144.728 233.906 147.86 236.408C164.902 248.92 178.274 228.043 176.561 216.548C176.112 213.542 174.905 209.859 169.351 205.369" fill="#4061A6"/>
<path d="M213.691 239.433C207.64 234.944 201.647 230.437 195.711 225.913L190.783 232.796C192.588 234.166 194.398 235.546 196.203 236.916L179.174 260.708C181.521 262.481 183.884 264.26 186.251 266.022L203.28 242.231C205.095 243.595 206.921 244.953 208.757 246.306L213.685 239.423" fill="#4061A6"/>
<path d="M240.343 258.783C237.908 257.044 235.473 255.305 233.048 253.561L224.806 265.08C221.699 262.846 218.613 260.601 215.527 258.356L223.769 246.837C221.365 245.081 218.971 243.319 216.577 241.558L194.62 272.233C197.014 273.995 199.408 275.756 201.812 277.512L210.599 265.24C213.675 267.49 216.771 269.73 219.878 271.963L211.091 284.236C213.516 285.98 215.951 287.719 218.386 289.459L240.343 258.783Z" fill="#4061A6"/>
<path d="M261.52 273.615C256.178 269.936 250.84 266.215 245.527 262.467L223.57 293.142C228.883 296.891 234.221 300.611 239.563 304.29L244.491 297.406C241.507 295.348 238.511 293.269 235.531 291.195L239.299 285.936C242.192 287.95 245.086 289.964 247.984 291.962L252.912 285.078C250.014 283.08 247.11 281.072 244.227 279.052L247.642 274.281C250.627 276.366 253.618 278.434 256.602 280.493L261.531 273.609" fill="#4061A6"/>
<path d="M293.969 295.376C288.704 291.938 283.437 288.447 278.163 284.92L256.206 315.595C258.567 317.173 260.928 318.751 263.284 320.318L271.647 308.625C274.456 310.484 277.259 312.332 280.051 314.159L284.979 307.275C282.171 305.443 279.374 303.606 276.575 301.742L280.307 296.516C283.219 298.439 286.125 300.352 289.025 302.255L293.953 295.372" fill="#4061A6"/>
<path d="M293.979 317.939L300.093 309.403C301.021 310 301.966 310.602 302.895 311.199C308.642 315.154 303.904 320.309 300.941 320.791C299.077 321.092 297.535 320.184 296.706 319.694C295.799 319.113 294.892 318.531 293.975 317.955M307.386 304.055C304.245 302.055 301.103 300.029 297.955 297.992L275.998 328.667C278.357 330.192 280.711 331.707 283.059 333.211L290.146 323.3C290.146 323.3 290.205 323.335 290.227 323.35C290.017 330.437 289.976 331.574 289.779 337.497C292.58 339.266 295.369 341.014 298.153 342.752C298.055 337.647 297.951 332.531 297.837 327.421C308.955 331.171 317.365 317.76 313.728 310.145C312.797 308.207 310.723 306.218 307.37 304.051" fill="#4061A6"/>
<path d="M318.98 346.422C310.768 340.797 317.381 329.049 325.308 327.319C332.864 325.67 338.626 332.747 333.609 341.049C330.152 346.784 323.589 349.196 318.986 346.432M336.729 321.406C320.525 312.791 302.421 329.9 307.103 344.415C312.186 360.137 334.566 358.946 342.321 342.547C346.166 334.411 343.867 325.721 336.729 321.406Z" fill="#4061A6"/>
<path d="M376.961 345.331C376.181 344.909 375.401 344.486 374.626 344.048C373.211 343.272 371.774 342.482 370.348 341.685C365.814 348.207 361.29 354.723 356.762 361.254C357.27 357.338 358.471 348.168 359.984 335.86C357.959 334.704 355.923 333.527 353.877 332.356L331.92 363.031C334.187 364.337 336.439 365.639 338.695 366.924C343.105 360.645 347.515 354.366 351.919 348.076C350.802 357.872 350.148 363.399 349.021 372.73C350.237 373.412 351.459 374.078 352.664 374.739C353.45 375.172 354.23 375.594 354.999 376.022L376.957 345.347" fill="#4061A6"/>
<path d="M396.341 355.564C391.016 352.857 385.488 349.951 379.764 346.857L374.836 353.74C376.579 354.673 378.306 355.602 380.005 356.505L362.976 380.297C365.186 381.473 367.364 382.614 369.498 383.724L386.527 359.932C388.172 360.784 389.795 361.621 391.407 362.438L396.335 355.554" fill="#4061A6"/>
<path d="M404.958 359.881C402.96 358.898 400.919 357.885 398.845 356.836L376.888 387.511C378.956 388.55 380.987 389.568 383.001 390.556L404.958 359.881Z" fill="#4061A6"/>
<path d="M421.509 367.676C417.561 365.899 413.446 363.985 409.189 361.933L387.232 392.608C391.489 394.66 395.604 396.574 399.551 398.351L404.48 391.467C402.259 390.471 400.006 389.439 397.699 388.356L401.467 383.097C403.705 384.151 405.904 385.158 408.049 386.115L412.977 379.231C410.827 378.264 408.627 377.257 406.395 376.213L409.81 371.442C412.118 372.525 414.387 373.562 416.591 374.553L421.519 367.67" fill="#4061A6"/>
<path d="M418.818 386.749L424.932 378.214C425.581 378.492 426.234 378.755 426.877 379.024C430.914 380.967 425.863 386.708 423.452 387.588C422.164 388.061 421.218 387.729 420.715 387.545C420.088 387.281 419.461 387.018 418.818 386.749ZM431.5 372.024C429.33 371.121 427.106 370.167 424.834 369.173L402.876 399.848C404.576 400.603 406.253 401.317 407.893 402.011L414.979 392.1C414.979 392.1 415.017 392.12 415.033 392.125C414.188 396.211 413.61 398.957 412.51 403.934C414.395 404.709 416.237 405.428 418.04 406.127C418.951 401.494 419.445 398.915 420.377 393.653C429.035 394.011 438.666 378.419 434.604 374.031C433.596 372.94 432.004 372.26 431.479 372.035" fill="#4061A6"/>
<path d="M447.923 377.604C441.582 375.947 429.388 386.471 433.486 394.936C434.406 396.827 435.19 398.47 433.012 401.065C431.356 403.039 426.588 404.328 430.902 398.02C429.416 397.485 427.902 396.924 426.345 396.333L425.871 396.993C417.535 409.182 425.986 409.975 427.997 409.62C430.061 409.264 443.783 401.456 439.602 390.685C438.989 389.11 438.358 387.479 440.465 385.272C441.562 384.125 445.621 382.47 442.525 387.632C443.947 388.122 445.335 388.576 446.696 389.005C452.907 380.054 449.204 378.009 447.923 377.604Z" fill="#4061A6"/>
<path d="M447.833 407.059L451.832 401.46C452.428 401.592 453.019 401.715 453.599 401.843C455.752 402.419 451.828 406.647 450.758 407.202C450.177 407.518 449.811 407.462 449.583 407.438C449.009 407.32 448.429 407.192 447.833 407.059ZM456.529 394.917L459.944 390.145C460.402 390.246 460.87 390.341 461.317 390.447C463.161 390.949 459.817 394.54 458.909 395.02C458.411 395.291 458.103 395.243 457.886 395.214C457.434 395.123 456.987 395.017 456.529 394.917ZM465.883 383.491C464.458 383.192 462.983 382.851 461.454 382.46L439.497 413.135C441.09 413.545 442.623 413.894 444.097 414.208C451.332 415.608 459.728 400.983 458.953 398.341C461.725 396.593 472.416 385.032 466.059 383.543C466.011 383.529 465.937 383.516 465.889 383.502" fill="#4061A6"/>
<path d="M478.605 384.999C476.825 385.013 474.873 384.905 472.746 384.651L450.789 415.326C452.916 415.581 454.868 415.688 456.648 415.674L461.576 408.791C460.572 408.799 459.536 408.771 458.419 408.693L462.187 403.434C463.262 403.508 464.272 403.537 465.249 403.53L470.177 396.646C469.21 396.648 468.19 396.625 467.116 396.551L470.531 391.779C471.632 391.853 472.684 391.885 473.687 391.877L478.615 384.994" fill="#4061A6"/>
<path d="M486.068 383.776C485.479 384.003 484.852 384.209 484.177 384.375C481.158 388.192 478.782 391.216 474.227 396.93C476.067 394.009 478.353 390.375 481.83 384.804C481.052 384.905 480.235 384.959 479.375 384.983C477.035 389.036 473.502 395.175 468.042 404.295L460.057 415.446C460.762 415.359 461.434 415.235 462.062 415.082L470.047 403.93C473.419 399.747 478.503 393.423 486.068 383.776Z" fill="#4061A6"/>
<path d="M471.367 406.585C471.367 406.585 471.284 406.63 471.253 406.647C471.108 405.167 482.966 389.345 484.378 388.457C484.225 389.561 471.48 406.496 471.351 406.58M470.994 407.58L487.554 384.433L488.028 383.772C489.081 382.273 489.332 381.868 489.447 381.537C489.249 381.617 489.023 381.794 488.869 381.932C481.339 389.343 465.285 411.812 466.273 413.558C466.733 413.268 467.362 412.644 470.994 407.58Z" fill="#4061A6"/>
</g>
</svg>
