<?xml version="1.0" encoding="UTF-8"?>
<svg id="Layer_1" data-name="Layer 1" xmlns="http://www.w3.org/2000/svg" viewBox="0 0 207.31 44.47">
  <defs>
    <style>
      .cls-1 {
        fill: #fff;
      }
    </style>
  </defs>
  <polygon class="cls-1" points="42.03 9.15 37.4 0 26.08 9.15 30.11 9.15 19.65 31.14 18.18 34.24 27.38 34.24 38.82 9.15 42.03 9.15"/>
  <path class="cls-1" d="m39.43,20.92h16.05v5.67h-10.09v3.17h10.09v5.67h-10.09v8.83h-5.96v-23.36Z"/>
  <path class="cls-1" d="m57.52,44.25v-23.27s8.49,0,8.49,0c1.39,0,2.74.2,4.05.59,1.14.4,2.14,1,3,1.82,1.47,1.41,2.4,2.79,2.4,5.41v.58c0,1.61-.53,3.13-1.57,4.53-.74.99-1.36,1.5-2.45,2l5.59,8.34h-6.91l-6.92-9.09v9.09h-5.69Zm12.03-14.97c0-.72-.3-1.33-.91-1.88-.61-.5-1.9-.77-2.96-.77h-2.48v5.41h2.11s1.23.01,1.23.01c1.56,0,3.01-1.17,3.01-2.77Z"/>
  <path class="cls-1" d="m89.14,20.79c3.56,0,6.22,1.17,8.77,3.48,2.41,2.31,3.63,5.12,3.63,8.36s-1.22,6.05-3.63,8.34c-2.54,2.28-5.19,3.44-8.77,3.44-3.58,0-6.24-1.16-8.77-3.44-2.4-2.3-3.62-5.1-3.62-8.34s1.21-6.04,3.62-8.36c2.55-2.31,5.21-3.48,8.77-3.48Zm0,5.73c-1.96,0-3.13.58-4.48,1.78-1.37,1.22-2.04,2.63-2.04,4.3s.67,3.1,2.04,4.29c1.36,1.19,2.54,1.77,4.49,1.77s3.09-.58,4.47-1.77c1.38-1.19,2.05-2.6,2.05-4.29s-.67-3.09-2.06-4.29c-1.37-1.2-2.55-1.78-4.47-1.78Z"/>
  <path class="cls-1" d="m108.04,20.92l9.72,12.25v-12.25h5.87v23.33h-5l-9.87-12.22v12.22h-5.86v-23.33h5.14Z"/>
  <path class="cls-1" d="m125.66,20.98h18.16v5.64h-5.93l.22,17.62h-6.42l-.07-17.62h-5.95v-5.64Z"/>
  <path class="cls-1" d="m145.84,44.25v-23.27h5.69v23.27h-5.69Z"/>
  <path class="cls-1" d="m153.42,20.92h16.05v5.67h-10.09v3.17h10.09v5.67h-10.09v3.18h10.09v5.66h-16.05v-23.36Z"/>
  <path class="cls-1" d="m171.51,44.25v-23.27s8.49,0,8.49,0c1.39,0,2.74.2,4.05.59,1.14.4,2.14,1,3,1.82,1.47,1.41,2.4,2.79,2.4,5.41v.58c0,1.61-.53,3.13-1.57,4.53-.74.99-1.36,1.5-2.45,2l5.59,8.34h-6.92l-6.92-9.09v9.09h-5.69Zm12.03-14.97c0-.72-.3-1.33-.91-1.88-.61-.5-1.9-.77-2.96-.77h-2.48v5.41h2.11s1.23.01,1.23.01c1.56,0,3.01-1.17,3.01-2.77Z"/>
  <path class="cls-1" d="m196.41,36.88c0,.86,1.03,1.7,2.14,1.84h0s.3,0,.3,0c1.19,0,2.46-.88,2.46-1.78,0-1.54-2.52-1.78-4.58-2.39-3.23-.96-5.95-3.29-5.95-6.56,0-3.97,3.42-7.18,8.09-7.18,4.25,0,7.49,2.84,8,6.53l.06.45-5.98,1.2c0-1.43-.58-2.47-2.05-2.47-1.12,0-2.08.8-2.08,1.78,0,1.54,2.38,2.03,4.34,2.53,3.32.84,6.14,3.09,6.14,6.44,0,4-3.79,7.19-8.42,7.19-4.26,0-7.79-2.8-8.36-6.52l-.07-.46,5.94-1.21v.61Z"/>
  <polygon class="cls-1" points="27.38 34.24 18.18 34.24 13.51 44.13 13.51 44.13 22.89 44.13 27.38 34.24"/>
  <polygon class="cls-1" points="9.7 16.7 0 16.7 4.85 26.18 14.48 26.18 9.7 16.7"/>
  <polygon class="cls-1" points="4.85 26.18 13.51 43.95 18.43 34.24 14.48 26.18 4.85 26.18"/>
  <polygon class="cls-1" points="200.96 29 206.83 29 206.94 27.8 204.63 26.52 200.96 29"/>
  <polygon class="cls-1" points="190.46 37.49 190.46 35.94 196.41 35.94 196.41 37.86 190.46 37.49"/>
  <polygon class="cls-1" points="26.32 17.12 35.19 17.12 27.38 34.24 18.43 34.24 26.32 17.12"/>
  <g>
    <polygon class="cls-1" points="116.12 1.62 114.96 1.62 114.96 10.43 116.12 10.43 116.12 6.13 118.09 6.13 118.09 5.16 116.12 5.16 116.12 1.62 116.12 1.62"/>
    <polygon class="cls-1" points="108.81 10.44 107.65 10.44 107.65 13.46 116.12 13.46 116.12 12.49 108.81 12.49 108.81 10.44 108.81 10.44"/>
    <polygon class="cls-1" points="111.84 1.58 108.38 1.58 108.38 2.55 111.84 2.55 111.84 1.58 111.84 1.58"/>
    <polygon class="cls-1" points="113.84 3.04 106.38 3.04 106.38 4.01 113.84 4.01 113.84 3.04 113.84 3.04"/>
    <path class="cls-1" d="m114.01,7.04c0-1.69-1.75-2.54-3.9-2.54s-3.9.85-3.9,2.54,1.75,2.54,3.9,2.54,3.9-.85,3.9-2.54h0Zm-6.56,0c0-1.13,1.19-1.57,2.66-1.57s2.66.43,2.66,1.57-1.19,1.57-2.66,1.57-2.66-.43-2.66-1.57h0Z"/>
    <polygon class="cls-1" points="120.18 9.53 127.96 9.53 127.96 10.52 120.18 10.52 120.18 13.46 129.12 13.46 129.12 12.49 121.34 12.49 121.34 11.5 129.12 11.5 129.12 11.48 129.12 8.56 120.18 8.56 120.18 9.53 120.18 9.53"/>
    <path class="cls-1" d="m124.8,3.01c1.5,2.22,5.22,2.62,5.22,2.62l.18-.97c-4.54-.57-4.79-3.02-4.8-3.45,0-.02,0-.04,0-.07h-1.22s0,.04,0,.07c0,.43-.26,2.88-4.8,3.45l.18.97s3.72-.4,5.22-2.62h0Z"/>
    <polygon class="cls-1" points="125.38 5.17 124.22 5.17 124.22 6.59 118.76 6.59 118.76 7.57 130.71 7.57 130.71 6.59 125.38 6.59 125.38 5.17 125.38 5.17"/>
  </g>
  <polygon class="cls-1" points="131.82 1.66 131.82 2.63 140.37 2.63 140.37 11.05 141.34 11.05 141.34 1.66 131.82 1.66"/>
  <rect class="cls-1" x="130.87" y="12.18" width="12" height=".97"/>
  <polygon class="cls-1" points="144.57 1.43 144.57 2.4 152.76 2.4 152.76 3.35 144.57 3.35 144.57 6.35 153.73 6.35 153.73 5.38 145.54 5.38 145.54 4.33 153.73 4.33 153.73 1.43 144.57 1.43"/>
  <rect class="cls-1" x="143.11" y="7.27" width="12.08" height=".97"/>
  <rect class="cls-1" x="148.66" y="7.93" width=".97" height="1.57"/>
  <g>
    <rect class="cls-1" x="144.57" y="12.48" width="9.16" height=".96"/>
    <rect class="cls-1" x="144.57" y="10.36" width="9.16" height=".96"/>
    <rect class="cls-1" x="144.57" y="8.97" width=".97" height="4.26"/>
    <rect class="cls-1" x="152.76" y="8.97" width=".97" height="4.26"/>
  </g>
  <rect class="cls-1" x="138.17" y="6.09" width="5.37" height=".97" transform="translate(147.43 -134.28) rotate(90)"/>
  <g>
    <path class="cls-1" d="m162.72,12.95c-1.05.11-2.1.18-3.15.23-1.06.05-2.13.08-3.21.09l-.12-.75c.34,0,.67-.01,1-.01.33,0,.67-.01,1-.02v-4.02h.91v3.99c.6-.02,1.18-.05,1.76-.09.57-.04,1.14-.09,1.7-.14l.12.73Zm-.98-2.19h-.9v-5.48h-4.12v-.75h5.02v6.23Zm3.75-1.92h-1.5v4.62h-.9V4.4h.9v3.66h1.5v.77Z"/>
    <path class="cls-1" d="m169.15,6.45v-.77h5.22v.77h-5.22Zm.38,1.95c0-.49.18-.88.54-1.16.36-.28.92-.42,1.68-.42s1.32.14,1.68.42c.37.28.55.67.55,1.16s-.18.88-.55,1.16c-.37.28-.93.42-1.68.42s-1.32-.14-1.68-.42c-.36-.28-.54-.67-.54-1.16Zm7.08,2.05v2.99h-6.88v-2.99h6.88Zm-6.38-5.26v-.77h3.04v.77h-3.04Zm2.86,3.21c0-.11-.02-.21-.05-.31-.03-.1-.1-.19-.19-.27-.1-.08-.23-.14-.41-.19-.18-.05-.41-.07-.69-.07s-.5.02-.67.07-.31.11-.4.19c-.1.08-.17.17-.2.27-.04.1-.05.2-.05.31,0,.11.02.22.05.32.04.1.1.19.2.27.1.08.23.14.4.19.17.05.39.07.67.07s.51-.02.69-.07c.18-.05.31-.11.41-.19.09-.08.16-.17.19-.27.03-.1.05-.2.05-.32Zm-2.45,4.3h5.07v-1.51h-5.07v1.51Zm7.47-5.16h-1.5v2.42h-.9v-5.56h.9v2.39h1.5v.76Z"/>
    <path class="cls-1" d="m181.03,6.9c0,1.14-.14,2.18-.42,3.12-.28.94-.73,1.79-1.35,2.55l-.67-.46c.3-.36.55-.74.75-1.16.2-.42.35-.84.47-1.27.12-.43.2-.85.25-1.26.05-.41.07-.79.07-1.13v-1.98h-1.22v-.77h2.12v2.37Zm2.27-.02c0,.66-.03,1.29-.08,1.87-.06.59-.15,1.14-.29,1.67-.14.53-.32,1.03-.54,1.51s-.5.94-.84,1.39l-.71-.45c.3-.39.54-.82.75-1.27.2-.45.36-.91.48-1.37.12-.46.21-.92.26-1.37.05-.45.08-.87.08-1.27v-2.3h-1.08v-.77h1.97v2.35Zm1.15-2.4h.87v8.84h-.87v-4.49h-.86v-.76h.86v-3.59Zm2.73-.08v9.05h-.88V4.4h.88Z"/>
    <path class="cls-1" d="m188.54,6.76v-.77h5.22v.77h-5.22Zm4.97,4.04c0,.88-.19,1.52-.58,1.94-.38.42-.99.63-1.83.63-1.61,0-2.42-.85-2.42-2.56v-.66c0-1.7.81-2.56,2.42-2.56.84,0,1.45.21,1.83.63.38.42.58,1.06.58,1.94v.64Zm-3.99-5.6v-.77h3.24v.77h-3.24Zm.07,5.61c0,.65.13,1.1.39,1.36.26.26.63.39,1.12.39s.85-.13,1.11-.39c.26-.26.39-.72.39-1.36v-.66c0-.64-.13-1.1-.39-1.36-.26-.26-.63-.4-1.11-.4s-.86.13-1.12.4c-.26.26-.39.72-.39,1.36v.66Zm7.86-1.98h-1.5v4.62h-.9V4.4h.9v3.66h1.5v.77Z"/>
    <path class="cls-1" d="m206.88,9.03v.76h-8.82v-.76h8.82Zm-7.27,1.65v2.01h6.75v.76h-7.66v-2.77h.91Zm.05-6.15v2.83h6.7v.76h-7.61v-3.59h.91Z"/>
  </g>
</svg>