<svg width="23" height="35" viewBox="0 0 23 35" fill="none" xmlns="http://www.w3.org/2000/svg">
<path fill-rule="evenodd" clip-rule="evenodd" d="M21.2618 33.0484C20.7256 33.6799 19.7726 33.765 19.1331 33.2383L1.15877 18.4353C0.519296 17.9086 0.43551 16.9697 0.971632 16.3381C1.50775 15.7066 2.46077 15.6215 3.10024 16.1482L21.0746 30.9512C21.7141 31.4779 21.7979 32.4168 21.2618 33.0484Z" fill="#898989"/>
<path fill-rule="evenodd" clip-rule="evenodd" d="M21.2751 1.13159C21.8189 1.75655 21.7466 2.69639 21.1136 3.23077L3.11576 18.4241C2.48273 18.9584 1.52873 18.885 0.984931 18.2601C0.441133 17.6351 0.513466 16.6953 1.14649 16.1609L19.1443 0.967594C19.7773 0.433209 20.7313 0.506634 21.2751 1.13159Z" fill="#898989"/>
</svg>
