<svg width="14" height="14" viewBox="0 0 14 14" fill="none" xmlns="http://www.w3.org/2000/svg">
<path fill-rule="evenodd" clip-rule="evenodd" d="M13.0002 0H14V0.999307C14 0.999769 14 1.00023 14 1.00069V11C14 11.5523 13.5523 12 13 12C12.4477 12 12 11.5523 12 11V3.41421L1.70714 13.7071C1.31661 14.0976 0.683448 14.0976 0.292924 13.7071C-0.0976006 13.3166 -0.0976006 12.6834 0.292924 12.2929L10.5858 2H3.00003C2.44775 2 2.00003 1.55228 2.00003 1C2.00003 0.447715 2.44775 0 3.00003 0H12.9999C13 0 13.0001 0 13.0002 0Z" fill="#898989"/>
</svg>
