<svg width="23" height="35" viewBox="0 0 23 35" fill="none" xmlns="http://www.w3.org/2000/svg">
<path fill-rule="evenodd" clip-rule="evenodd" d="M0.998015 1.14354C1.53414 0.511978 2.48715 0.426935 3.12663 0.953585L21.101 15.7566C21.7405 16.2833 21.8243 17.2222 21.2881 17.8538C20.752 18.4853 19.799 18.5704 19.1595 18.0437L1.18516 3.24066C0.545678 2.71401 0.461893 1.77509 0.998015 1.14354Z" fill="#898989"/>
<path fill-rule="evenodd" clip-rule="evenodd" d="M0.984634 33.0603C0.440836 32.4353 0.51317 31.4955 1.1462 30.9611L19.144 15.7678C19.777 15.2334 20.731 15.3069 21.2748 15.9318C21.8186 16.5568 21.7463 17.4966 21.1133 18.031L3.11547 33.2243C2.48244 33.7587 1.52843 33.6853 0.984634 33.0603Z" fill="#898989"/>
</svg>
